<svg version="1.1" id="Layer_1" xmlns="http://www.w3.org/2000/svg" xmlns:xlink="http://www.w3.org/1999/xlink" x="0px" y="0px"
	 width="100%" viewBox="0 0 1024 1024" enable-background="new 0 0 1024 1024" xml:space="preserve">
<path fill="#000000" opacity="1.000000" stroke="none" 
	d="
M360.995239,296.997345 
	C363.280182,296.811218 365.345306,296.638062 367.489655,295.128357 
	C372.813324,291.380249 381.068512,293.975067 383.764618,299.998535 
	C384.665222,302.010651 385.709808,303.909332 387.150696,305.459717 
	C392.322296,311.024261 396.322174,317.322510 399.831390,324.031128 
	C402.053925,328.279907 405.335205,328.756866 410.181274,326.394470 
	C412.375977,325.324554 415.695740,326.075195 415.739410,322.004913 
	C415.784973,317.763214 416.146118,313.390625 411.655365,311.168365 
	C408.596832,309.654877 409.519379,306.456116 408.076294,304.566162 
	C401.167358,295.517822 394.744049,285.987061 385.799133,278.718292 
	C383.196381,276.603271 379.644470,277.808502 376.607300,277.204651 
	C367.026367,275.299805 360.444427,281.631683 353.086060,285.597137 
	C351.032043,286.704041 349.369019,289.401154 348.546753,291.729095 
	C347.269806,295.344330 345.255920,296.219025 341.551514,296.492462 
	C333.680908,297.073456 330.316986,302.511047 332.486206,309.999268 
	C332.621674,310.466858 332.768616,311.221710 333.066284,311.308685 
	C338.612213,312.929199 339.852356,318.518951 342.808533,322.341156 
	C346.781036,327.477509 350.854980,332.731812 353.949677,338.401428 
	C356.397980,342.886810 360.807037,345.676239 362.761230,350.555511 
	C363.477905,352.344971 364.494537,353.799377 364.270630,355.756866 
	C351.176605,355.697113 358.208984,366.346527 354.693268,372.080170 
	C358.402496,353.408417 352.669128,338.990784 336.131592,329.536469 
	C323.605072,330.481110 309.819519,324.764282 299.215179,336.247589 
	C297.630463,333.339722 299.098175,331.123535 301.483093,329.166504 
	C307.043701,324.603516 313.633789,323.171204 320.593048,322.942291 
	C324.547791,322.812195 328.345123,323.415131 326.790344,316.857422 
	C325.865479,312.956635 327.588470,308.639526 330.816284,305.616425 
	C327.412354,300.638672 327.751923,298.760681 332.876160,295.464935 
	C337.634094,292.404755 343.016632,290.601776 346.267395,285.080811 
	C348.421295,281.422729 352.612213,278.935486 357.002747,277.324402 
	C360.774048,275.940552 363.077789,272.735046 364.604919,269.093506 
	C366.910065,263.596771 370.891327,261.227966 376.851135,261.972626 
	C378.814911,262.217987 380.994507,262.420197 382.812286,261.830688 
	C388.063416,260.127808 393.279175,258.984314 394.560547,251.629791 
	C396.309021,241.594574 400.022797,239.165756 410.141113,237.971649 
	C412.819977,237.655502 414.581604,239.020905 416.363312,240.534973 
	C418.796783,242.602966 420.884003,243.060562 423.844360,240.857178 
	C427.893219,237.843658 432.544891,235.895401 437.897278,237.679810 
	C439.858490,238.333649 441.827667,237.682632 443.807251,237.333069 
	C448.365601,236.528122 452.825653,235.503693 457.602997,236.995651 
	C460.842316,238.007309 464.221222,236.437683 466.846588,234.336899 
	C474.285034,228.384750 481.646027,222.522385 491.751648,221.712387 
	C494.986664,221.453079 497.139404,218.530167 499.765533,216.803558 
	C502.467651,215.026932 505.326843,214.913406 506.642548,217.788055 
	C510.906128,227.103577 518.504700,224.493866 525.576904,223.448257 
	C529.014099,222.940079 532.408020,221.656815 535.300476,219.642975 
	C547.024841,211.480209 558.984680,211.005798 571.316223,218.155228 
	C576.514343,221.168930 582.418030,219.936859 587.974548,220.605820 
	C594.810730,221.428802 601.404297,222.703064 607.837463,225.227951 
	C617.163757,228.888321 631.083557,221.124298 632.765442,211.288452 
	C635.664124,194.336746 647.791382,192.333740 660.459534,197.851059 
	C670.552917,202.247025 680.027161,208.908752 689.413208,215.289017 
	C703.199036,224.660019 717.932495,233.404266 735.770386,232.926422 
	C737.925842,232.868683 740.078491,232.550140 742.223206,232.279907 
	C748.016418,231.549973 753.220154,232.656433 758.512268,235.498550 
	C780.289673,247.194077 795.991333,265.091980 809.800049,284.927917 
	C813.933533,290.865601 814.806824,298.290161 817.347290,304.970734 
	C823.558716,321.304413 825.639160,338.231232 826.532043,355.760834 
	C827.448975,373.762360 831.488159,391.656189 835.821167,409.297455 
	C838.973022,422.129578 842.022400,435.123505 838.878052,448.288055 
	C836.136414,459.766541 832.923279,471.198822 828.221069,482.086945 
	C826.712097,485.581024 824.756592,489.042206 821.661804,491.414612 
	C817.881958,494.312103 817.183044,497.965057 818.599670,502.086304 
	C822.367615,513.047974 820.901489,523.348267 815.386719,533.362488 
	C810.238098,542.711792 810.449524,553.035950 811.351807,563.123169 
	C811.808472,568.228516 815.383728,572.707275 816.545288,578.053467 
	C819.842773,593.231018 809.041626,603.654480 795.938171,605.998718 
	C794.575867,606.242432 792.769897,606.494934 792.697998,607.848450 
	C792.468872,612.165466 788.956360,616.276550 791.841553,620.792725 
	C793.354614,623.161072 792.657959,625.212280 790.508972,627.242188 
	C789.607666,623.517578 786.588867,621.821716 783.544617,621.117981 
	C773.725647,618.848328 765.626526,612.672424 756.088806,609.567383 
	C750.780579,607.839233 745.345642,604.821655 740.105469,602.194641 
	C737.104126,600.689880 733.576233,598.646423 729.666077,598.455139 
	C725.552979,598.253906 722.805054,594.737915 719.249634,593.054382 
	C712.109131,589.673462 705.239441,591.426575 703.489197,599.134460 
	C703.088806,600.897644 703.123901,602.553711 704.897034,604.042053 
	C708.833374,607.346252 713.752258,608.602844 718.015869,610.986694 
	C721.775818,613.088989 725.891541,613.408386 729.620544,615.379700 
	C734.923218,618.183044 740.123962,621.283936 746.131042,623.002563 
	C750.199890,624.166687 754.341248,626.395142 758.151367,628.891663 
	C760.544861,630.459961 763.765076,631.747131 766.345398,632.276367 
	C770.022583,633.030701 772.028259,635.182556 774.871887,637.503357 
	C770.816711,639.849731 768.821655,643.541870 768.510437,647.955078 
	C768.187805,652.530151 771.221436,655.767578 773.979065,658.826843 
	C784.318481,670.297058 784.964600,683.424805 781.027771,697.445923 
	C779.508423,702.857117 778.927612,708.596436 774.632996,712.929138 
	C771.668213,715.920227 768.494019,717.254089 764.295166,716.067932 
	C749.301025,711.832214 736.014221,721.231201 731.353821,736.734009 
	C729.691711,742.263000 734.757690,750.250122 741.587891,751.899109 
	C750.771362,754.116089 760.122864,756.663391 767.991821,747.771729 
	C771.815247,743.451416 775.737854,748.176514 778.419739,750.116272 
	C781.683350,752.476685 779.649536,756.252136 777.884766,759.514587 
	C772.780457,768.950867 763.683655,772.547852 754.467529,775.942383 
	C750.368347,777.452271 746.724365,779.763489 742.845581,781.611450 
	C730.208862,787.631836 716.883118,790.902466 702.728333,789.607788 
	C692.969604,788.715210 683.428345,787.986023 673.511719,790.258240 
	C663.486877,792.555359 652.888672,792.945312 644.470032,784.428223 
	C642.449646,782.384338 639.471375,782.078735 636.528687,781.992371 
	C630.416626,781.813110 624.499756,780.845764 620.651245,775.281982 
	C618.582336,772.291016 614.563843,773.960999 611.536316,771.172058 
	C618.538391,766.620117 625.773682,762.344604 628.580444,754.404846 
	C631.343811,746.587891 629.418091,738.148254 630.982300,730.026672 
	C630.982300,733.950134 630.982300,737.873657 630.982300,741.797180 
	C631.289490,741.794556 631.596619,741.791870 631.903809,741.789246 
	C631.903809,737.882629 631.903809,733.976074 631.903809,728.738953 
	C635.266113,733.915283 640.619995,734.292786 643.604553,738.074402 
	C644.058167,738.649048 645.467224,738.540405 646.444458,738.615662 
	C648.270081,738.756104 650.555054,738.125671 651.856140,738.998169 
	C657.985657,743.108337 664.020630,740.079834 669.502380,738.327148 
	C674.808411,736.630615 679.524170,732.791199 683.260132,728.333679 
	C685.789307,725.315918 689.803894,722.876709 686.882324,716.904663 
	C691.643311,719.195435 695.248840,721.988831 697.530640,716.395020 
	C697.583496,716.265381 697.785828,716.190674 697.926819,716.103943 
	C705.543640,711.419128 705.710754,711.260437 699.722412,704.966797 
	C695.123657,700.133606 692.380798,694.058533 688.032166,689.016174 
	C682.861023,683.020142 677.414185,677.110046 673.906311,669.767395 
	C672.754089,667.355713 670.629761,665.173157 668.460571,663.533020 
	C664.294373,660.382812 663.512817,655.099609 659.829102,651.398315 
	C655.448608,646.996887 651.794006,643.266968 644.886536,645.731689 
	C645.644531,641.816284 647.948853,640.558411 650.502563,639.673096 
	C654.325317,638.347961 655.980225,635.799561 655.863953,631.723389 
	C655.764648,628.242126 656.435669,624.734314 656.278381,621.260254 
	C655.867249,612.174194 657.895386,608.973145 666.714355,608.354309 
	C673.099182,607.906067 676.129944,605.347595 677.715027,599.180298 
	C679.800476,591.066467 687.346436,586.978149 695.418030,588.551819 
	C701.918884,589.819275 710.614990,582.822754 709.118774,577.527283 
	C708.005005,573.585449 705.654541,571.768677 701.350037,572.398438 
	C693.312622,573.574341 691.448547,571.510803 692.595703,563.434631 
	C693.110168,559.812317 693.532593,556.155518 693.649414,552.503235 
	C693.807495,547.562073 695.095276,543.196716 697.649597,538.842957 
	C700.932129,533.247986 701.104675,526.679810 700.566650,520.375732 
	C700.163757,515.654968 700.004761,511.089050 701.330383,506.527985 
	C702.410889,502.810120 702.002258,499.299713 699.995972,495.949829 
	C697.664124,492.056152 696.872864,487.586395 695.344360,483.415344 
	C692.154358,474.710693 688.059387,466.236603 681.627014,459.339020 
	C678.090027,455.546143 674.523743,451.839752 671.897827,447.346863 
	C664.718262,435.062500 655.271118,424.468384 646.521484,413.359802 
	C644.895081,411.294922 642.765808,409.584900 640.709045,407.906769 
	C624.875244,394.988342 609.200256,381.846649 591.348999,371.677216 
	C587.757202,369.631042 585.459778,366.258789 582.973999,363.187714 
	C578.321228,357.439362 573.094666,352.406189 567.059021,348.141357 
	C561.893250,344.491241 558.923340,339.776489 558.862427,333.040771 
	C558.795105,325.588074 554.000122,319.803650 549.290161,314.882538 
	C545.631775,311.060089 543.114075,305.956604 538.705261,303.232452 
	C532.299377,299.274353 532.349121,292.907654 534.050659,288.066040 
	C536.428345,281.300659 535.487793,274.398254 537.181335,267.948273 
	C539.115417,260.582397 544.966492,255.549438 552.388611,253.060104 
	C555.169067,252.127548 564.635803,256.978729 565.596130,259.780426 
	C567.387817,265.007141 570.233948,270.164551 566.720764,275.933533 
	C565.880554,277.313232 566.316711,279.512848 566.290405,281.337158 
	C566.223755,285.955902 566.609924,290.511658 563.529724,294.675659 
	C561.745483,297.087799 562.231812,300.437531 562.347229,303.443726 
	C562.394897,304.683350 562.749756,306.011597 564.007690,306.250519 
	C568.272034,307.060394 572.635010,307.244110 576.897888,306.545593 
	C579.313110,306.149841 578.215576,303.548157 578.760986,301.940857 
	C581.349915,294.310974 580.506897,286.026123 582.571716,278.589081 
	C584.368774,272.116486 586.679810,266.037689 584.646118,259.574219 
	C582.251282,251.963181 579.302185,245.287918 570.454712,241.555893 
	C563.391357,238.576462 556.846863,240.186996 550.129456,239.358505 
	C547.339661,239.014404 544.796814,238.897491 542.123596,237.372070 
	C538.114502,235.084351 533.044250,235.471466 529.033997,236.776245 
	C526.286011,237.670349 524.825867,241.968628 524.383728,245.452530 
	C524.092041,247.751266 524.281982,250.111435 524.260315,252.444107 
	C524.229858,255.725891 524.722351,259.006989 522.212402,261.894165 
	C520.907288,263.395538 521.284973,265.703430 521.272156,267.709534 
	C521.234558,273.592346 522.446960,279.679779 518.059143,284.800140 
	C516.798767,286.270966 517.381714,288.325623 517.250061,290.135193 
	C517.035156,293.090485 517.823730,296.123260 516.629517,299.083801 
	C513.265625,299.797577 512.055725,297.020447 509.987000,295.481506 
	C511.726532,291.217743 513.360657,287.324402 509.313629,283.493134 
	C506.045349,280.399078 501.424255,279.739807 498.150696,283.056183 
	C491.253143,290.044098 482.781494,287.058014 474.840576,286.818268 
	C473.257660,286.770447 471.446716,284.362213 470.279938,282.670593 
	C468.322052,279.832031 469.605011,278.191467 473.552399,277.783936 
	C484.494812,276.654266 495.355316,274.872345 506.290375,273.623627 
	C515.491699,272.572937 516.479431,269.286163 512.935547,259.163055 
	C510.290375,251.607086 504.908722,246.526917 499.195526,241.593430 
	C492.491425,235.804321 480.536102,234.863235 472.453003,238.535431 
	C469.712219,239.780563 466.845154,241.334763 464.030731,241.972992 
	C458.921326,243.131622 457.084351,247.301956 454.644714,250.664200 
	C447.739685,260.180450 450.764679,271.333832 450.333588,281.903442 
	C454.882294,286.283447 454.188904,294.441620 461.269135,297.021057 
	C463.224182,297.733307 463.703308,299.500061 464.033569,301.607697 
	C461.855682,302.401367 459.848724,303.969971 457.997559,301.023315 
	C452.120667,291.668365 450.938141,291.219788 442.345062,298.255096 
	C439.209137,300.822540 438.333282,299.997009 436.327179,297.496643 
	C433.948669,294.532135 431.043396,292.024017 431.637665,287.675995 
	C431.810059,286.414734 431.061829,285.476990 430.026154,284.774811 
	C429.476837,284.402374 428.543549,284.004395 428.506287,283.557617 
	C427.967499,277.098419 423.256622,271.780975 423.160156,264.667999 
	C428.418549,266.281586 431.507538,261.673950 436.142883,261.056366 
	C438.886230,260.690857 438.216064,255.812592 436.843109,253.269089 
	C434.495758,248.920517 426.781708,247.753220 422.532288,250.677643 
	C418.342926,253.560730 415.946167,252.642227 415.810333,247.771973 
	C415.696625,243.695267 413.886627,242.196259 409.974762,242.104919 
	C403.418762,241.951797 400.090576,243.577942 399.319092,247.789658 
	C399.229858,248.276855 399.174347,248.799500 399.249359,249.283035 
	C400.048035,254.428940 400.433075,259.302826 394.532104,262.113068 
	C392.829346,262.923950 392.688477,265.448334 393.783020,266.522705 
	C395.573456,268.280243 396.202515,270.101898 396.604065,272.471222 
	C397.053772,275.124573 399.479767,274.892670 401.460754,274.376221 
	C405.643799,273.285645 408.217865,273.195465 409.720886,278.786530 
	C411.221497,284.368591 414.945129,289.361237 415.581299,295.422852 
	C415.668671,296.255188 416.596405,296.680939 418.582916,296.047028 
	C415.846100,287.013336 412.191772,278.360840 408.541046,269.790527 
	C397.983398,272.072388 397.983398,272.072388 396.229614,264.131653 
	C396.533691,263.227783 397.329407,262.985596 398.109894,262.674866 
	C404.670898,260.062622 404.792053,260.019684 402.801331,253.451431 
	C401.587769,249.447281 403.011261,247.246094 406.607117,245.542831 
	C410.736176,243.586990 411.923889,246.279846 413.240845,249.124893 
	C414.143768,251.075516 415.070404,253.015167 416.251556,255.522446 
	C419.948914,254.198517 423.708984,253.088028 427.261078,251.509506 
	C430.409302,250.110474 432.497528,250.086823 433.891235,253.796051 
	C435.213348,257.314697 434.578461,259.538422 430.857758,260.720001 
	C428.484314,261.473785 426.221130,262.593231 423.828705,263.264069 
	C420.762177,264.123932 419.785614,265.648895 421.015656,268.762512 
	C424.561310,277.737854 427.823029,286.826538 431.443726,295.770569 
	C434.036285,302.174774 440.984680,303.907837 446.151398,299.149414 
	C449.400177,296.157318 451.517395,296.658661 453.964050,299.594269 
	C456.902435,303.119904 453.700836,304.888428 451.604919,306.322784 
	C440.457275,313.951874 428.277893,315.336273 420.814728,301.302643 
	C420.389648,300.503265 420.202942,299.338928 418.955109,299.171783 
	C419.863159,308.226166 423.950989,312.355896 432.600098,312.841888 
	C435.750122,313.018860 438.911560,313.003174 442.068146,313.047668 
	C443.206451,313.063721 444.511719,312.665771 445.132660,314.033478 
	C445.680542,315.240234 445.313354,316.498505 444.288940,317.172699 
	C439.976532,320.010773 437.291351,324.944794 432.254028,326.760132 
	C427.887299,328.333771 424.923340,331.262970 422.948212,335.302307 
	C421.073792,339.135529 418.002075,340.619690 413.842957,341.263367 
	C407.690765,342.215546 401.866028,344.558533 395.343536,342.204559 
	C392.270599,341.095490 389.010132,343.632690 386.201233,345.464355 
	C384.531464,346.553192 382.893921,347.695740 381.286682,348.875183 
	C379.220703,350.391266 377.202484,351.944458 376.272491,347.933258 
	C367.793335,352.921753 367.735321,352.962708 362.377167,345.372559 
	C354.504456,334.220490 346.577118,323.102203 338.953979,311.780396 
	C333.386414,303.511444 333.588074,303.375671 342.443115,298.486908 
	C344.580017,299.054230 344.422089,301.962708 347.071350,302.723633 
	C348.963776,294.375854 354.200714,288.704041 361.297852,283.975616 
	C372.173950,276.729370 383.386475,277.349945 391.967133,287.506653 
	C397.641724,294.223572 402.377106,301.736816 407.488770,308.924988 
	C409.416779,311.636169 411.062958,314.560913 413.126862,317.158447 
	C415.027557,319.550568 415.082184,321.453827 412.193634,322.672302 
	C409.585724,323.772308 407.279602,328.568878 403.897552,323.853302 
	C399.725250,318.035889 395.707764,312.107666 391.568542,306.266174 
	C389.452728,303.280243 387.389435,300.230408 385.003632,297.467438 
	C377.776428,289.097900 369.539886,288.785004 360.822449,296.823975 
	C354.231781,303.792084 353.299805,311.093292 358.413086,319.085297 
	C363.966766,327.765564 370.071899,336.093964 375.987305,344.540283 
	C376.584106,345.392395 377.386719,346.558044 379.053711,345.024963 
	C376.834686,343.493622 377.220062,340.602814 375.647491,338.802643 
	C369.914825,332.240326 365.495087,324.771820 360.602692,317.623718 
	C356.710541,311.937012 356.636414,308.049438 360.266174,302.288818 
	C361.134155,300.911255 363.163483,299.062988 360.995239,296.997345 
M715.192871,316.191589 
	C709.121582,316.954590 705.286682,320.510162 702.342163,326.188141 
	C700.153564,326.567139 698.092163,326.437317 696.346252,328.791260 
	C695.073547,330.507355 693.287537,332.383240 690.715698,333.228912 
	C684.817566,335.168304 681.235962,340.669800 675.794556,343.518951 
	C671.683960,345.671295 669.075378,349.992004 664.520508,351.812775 
	C660.871582,353.271332 660.353882,358.008453 663.349182,360.690491 
	C664.251831,361.498779 664.777100,362.408112 665.396362,363.390625 
	C667.534973,366.783691 669.391541,370.624512 672.341248,373.138275 
	C674.197144,374.719971 675.300171,376.229095 676.329407,378.277557 
	C679.587830,384.762878 683.971069,390.236267 690.924683,393.588837 
	C690.530579,394.847961 690.866638,395.714203 691.989990,396.554260 
	C694.312927,398.291290 696.867554,399.307861 699.550171,400.414246 
	C705.716614,402.957397 711.966309,405.543243 718.537537,405.468262 
	C726.790710,405.374176 734.190125,401.392883 741.496704,397.831818 
	C743.464050,396.872925 745.318481,395.206879 744.850098,392.374359 
	C742.194031,394.081696 739.671753,396.005341 736.894592,397.433075 
	C727.519836,402.252563 717.798645,404.405701 707.277100,401.352203 
	C701.254639,399.604401 696.318054,395.976654 690.720520,392.402313 
	C682.162659,382.869598 675.022339,372.241943 667.289368,362.071930 
	C662.900024,356.299316 662.937012,356.360016 668.890442,351.876587 
	C680.292053,343.290222 691.640137,334.632812 703.651062,325.763306 
	C708.014160,322.817688 712.619202,320.178284 716.661804,315.783752 
	C720.764893,313.717926 723.567810,309.850677 728.359619,308.137054 
	C724.856995,306.461243 718.952942,310.555725 715.192871,316.191589 
M598.222717,316.713013 
	C601.488831,322.527771 601.700867,322.665894 606.196228,321.604401 
	C603.343384,319.652588 600.681396,317.831329 597.623901,315.459320 
	C588.558899,304.604797 586.575562,292.834015 592.444946,279.706055 
	C599.044312,264.945221 616.597351,258.096680 631.376404,264.169434 
	C639.731079,267.602356 645.050781,273.500061 648.807007,282.158569 
	C650.109558,279.218597 651.045044,277.107056 652.465393,274.514099 
	C654.794617,269.897766 657.724182,265.519043 657.943848,260.061432 
	C655.844360,265.002686 652.179504,269.297363 651.561096,274.789001 
	C650.027283,272.923492 648.007385,273.736511 646.049011,273.966614 
	C645.499207,271.533752 645.310364,269.577667 642.779419,267.759613 
	C637.323792,263.840576 631.529968,261.112793 625.153198,259.427185 
	C620.258118,258.133270 615.584351,258.243622 610.690002,260.381561 
	C607.726562,261.676086 605.085327,263.653748 602.327881,264.710602 
	C593.860901,267.955811 591.517273,276.072418 588.905212,282.590027 
	C586.307495,289.071960 586.701050,297.481720 588.700623,304.579315 
	C589.963623,309.062622 591.567200,314.952148 598.222717,316.713013 
M740.796021,581.679260 
	C740.054016,582.763000 738.999573,583.748230 738.621582,584.946777 
	C736.472412,591.761414 738.564392,594.658020 745.472717,594.669312 
	C750.804199,594.678040 756.135742,594.673035 761.467224,594.673279 
	C763.456238,594.673401 765.426636,594.635132 766.370361,592.356628 
	C764.677002,590.487366 763.172485,591.823059 761.711060,592.278381 
	C756.372742,593.941406 751.012207,594.370972 745.445557,593.408020 
	C741.626770,592.747314 740.375793,591.114563 741.253723,587.269104 
	C743.954773,575.437988 746.462769,563.562561 749.001038,551.694824 
	C749.438416,549.649597 750.338928,547.580566 749.362305,545.476929 
	C740.779419,544.501221 733.412476,549.400818 730.726379,557.941101 
	C728.777832,564.136597 728.150818,570.386841 731.368103,576.395264 
	C733.806030,580.948120 729.919189,581.695618 727.421448,583.316284 
	C724.428589,585.258179 723.392578,583.149658 722.194641,580.925964 
	C720.076294,576.993713 719.419617,572.723022 719.204834,568.399353 
	C718.444153,553.084656 726.741821,538.438171 741.074463,533.986389 
	C746.713928,532.234741 752.277893,533.248474 757.793945,532.438049 
	C746.588867,530.549255 735.836426,529.781250 727.340210,539.999756 
	C724.234802,543.734680 720.490540,546.858459 719.391296,551.835144 
	C719.004517,553.586304 719.176575,555.355530 718.212341,557.097839 
	C713.171387,566.206665 717.694763,574.849854 719.995483,583.494080 
	C720.580322,585.691284 728.268005,586.029907 730.671753,584.365479 
	C735.155640,581.260742 736.033264,578.290649 733.411621,574.704712 
	C732.284424,573.162903 731.817200,571.532349 731.654907,569.632019 
	C730.827881,559.949585 735.294006,552.975281 742.756592,547.499084 
	C744.224609,546.421753 745.996155,546.277466 747.419067,547.369812 
	C748.626343,548.296570 748.605164,550.190979 747.500305,550.889648 
	C744.528625,552.768799 745.524170,555.549927 745.358582,558.082092 
	C745.206726,560.403320 746.095215,563.574646 744.897095,564.904846 
	C740.569824,569.709106 741.745422,575.432861 740.796021,581.679260 
M706.437805,388.694580 
	C725.707581,395.842957 745.225769,380.296844 745.097595,365.291016 
	C744.624512,365.517883 743.888489,365.638489 743.797546,365.948395 
	C741.417480,374.059967 736.114380,380.090118 729.261414,384.440430 
	C725.207031,387.014160 720.640686,390.314392 715.456604,389.164001 
	C706.815979,387.246674 699.490967,382.963013 693.661743,375.901855 
	C690.343384,371.882111 688.536438,366.865417 684.428894,363.337219 
	C682.907288,362.030243 682.930115,359.140533 685.816589,357.590942 
	C694.288086,353.043152 700.846008,345.862457 708.927979,340.615356 
	C714.329712,337.108337 720.326843,333.877594 723.977173,329.187256 
	C728.136292,329.161804 729.222839,332.100311 731.688904,335.253662 
	C731.071411,330.064789 728.203918,328.068176 726.022400,325.652893 
	C720.264587,328.678406 683.347778,355.979279 679.264343,360.324463 
	C682.626282,364.848846 686.138184,369.437958 689.500488,374.134125 
	C693.827393,380.177673 698.779236,385.454956 706.437805,388.694580 
M701.791809,686.958130 
	C707.667053,688.016541 713.508118,688.575500 719.367920,685.502991 
	C707.170715,686.540344 696.425415,684.034485 687.595032,675.190613 
	C679.434021,667.017212 676.588928,652.869873 681.305969,642.365540 
	C685.389893,633.271179 691.718445,626.606079 701.231689,623.249695 
	C714.265869,618.651001 725.113708,623.953552 736.342834,632.199707 
	C735.199524,630.079834 734.964478,628.909424 734.267029,628.465820 
	C728.139709,624.568237 722.826782,618.779236 714.375854,620.259094 
	C711.630310,620.739807 708.708374,620.548462 705.902283,620.286987 
	C697.292358,619.484619 691.113770,624.414734 685.627441,629.667603 
	C675.488464,639.375244 673.542542,664.275208 683.445740,674.349976 
	C686.210022,677.162109 688.310913,679.594482 692.221802,681.221924 
	C695.164062,682.446350 699.376648,682.782654 701.791809,686.958130 
M640.879089,292.475739 
	C641.415161,283.820282 636.703369,278.141510 629.589111,274.676422 
	C622.565369,271.255432 615.198486,271.503937 609.022705,276.963043 
	C602.695251,282.556183 599.120483,289.580292 600.841675,298.275574 
	C602.603638,307.176422 610.790833,313.795990 619.679993,313.973694 
	C631.529907,314.210663 639.879150,306.077545 640.879089,292.475739 
M695.978882,666.549133 
	C705.349426,675.180969 716.655762,675.921753 724.525879,668.419434 
	C732.600159,660.722534 733.311218,649.830078 726.307495,641.128174 
	C718.904846,631.930603 704.787415,630.190735 696.557190,637.461731 
	C687.506592,645.457458 687.062195,657.204346 695.978882,666.549133 
M672.393188,261.118073 
	C660.796814,285.625793 647.500671,309.312256 636.370300,333.925537 
	C637.629456,334.764374 638.649048,334.800842 638.751892,334.268402 
	C639.277527,331.548279 640.914429,329.494080 642.153564,327.157104 
	C645.546143,320.758331 647.854126,313.943604 652.111938,307.775543 
	C655.954346,302.209229 658.491516,295.446411 661.108154,289.128876 
	C663.831177,282.554626 667.815735,276.876556 670.818359,270.605347 
	C672.109314,267.909271 673.476990,265.142151 674.478149,262.346619 
	C676.794495,255.878922 669.323059,252.262192 663.252991,252.336456 
	C659.246277,252.385468 659.027771,252.824158 660.321350,257.034515 
	C664.735352,253.829803 669.275635,255.089050 672.393188,261.118073 
M561.434998,262.217316 
	C559.588928,260.810059 557.830994,259.261993 555.871460,258.035980 
	C553.994263,256.861420 551.836060,256.791931 550.628113,258.937134 
	C548.329285,263.019775 546.618958,275.996521 550.933533,280.779419 
	C551.740601,281.674042 552.314575,282.544250 553.763611,282.275848 
	C559.793762,281.158966 565.470642,267.765015 561.434998,262.217316 
M726.214539,509.310181 
	C733.127380,513.100464 740.583313,515.242432 748.372925,517.530579 
	C748.238525,515.085632 746.990662,514.822571 745.949463,514.415100 
	C740.713074,512.365906 735.482727,510.297821 730.205505,508.358368 
	C728.621033,507.776093 726.980530,507.384430 726.133423,505.774628 
	C723.972717,501.668335 726.110046,494.797943 730.131714,492.465851 
	C731.344849,491.762390 732.974487,491.498505 733.549072,489.854034 
	C732.186157,489.777405 723.204773,493.063934 722.768250,493.766968 
	C720.880188,496.808105 722.747070,506.255005 726.214539,509.310181 
M734.113647,673.533752 
	C732.183533,675.994751 730.253418,678.455688 728.512085,680.676025 
	C729.359802,681.025818 730.602600,680.643127 732.065674,678.974426 
	C734.857605,675.789978 737.997192,673.349121 739.522400,668.773682 
	C741.254700,663.576782 744.947937,658.992493 744.651733,653.107727 
	C744.461243,649.321350 745.867981,645.228210 742.090576,642.064758 
	C740.838623,641.016296 742.304321,638.383118 740.943359,636.907288 
	C739.852173,635.723877 738.505249,634.776367 737.271790,633.724182 
	C744.851135,647.577942 744.251282,660.549988 734.113647,673.533752 
M715.599182,424.199860 
	C723.668335,408.761230 737.314758,404.295074 753.578247,404.732666 
	C742.976746,401.451172 733.132996,404.113647 724.324951,409.721283 
	C717.723206,413.924286 712.851318,420.071930 713.477051,430.204803 
	C714.373901,427.594116 714.844788,426.223358 715.599182,424.199860 
M783.627380,555.183472 
	C783.605957,552.169067 781.977966,550.148682 779.170776,548.506775 
	C784.572083,561.470398 782.077026,573.486145 774.087830,585.459473 
	C776.680481,584.701050 776.360779,583.284546 777.058960,582.710815 
	C782.365906,578.349487 784.101807,572.651917 783.706787,566.005005 
	C783.510193,562.696472 783.656311,559.367493 783.627380,555.183472 
M752.388489,577.445618 
	C752.363586,578.912231 751.400757,580.311829 752.036316,581.820618 
	C758.177795,583.053284 763.195740,580.946533 765.375793,576.017883 
	C762.606812,579.472229 758.884521,578.473267 755.280945,579.120483 
	C754.817932,575.551636 753.133423,572.211426 756.706604,569.438049 
	C757.860413,568.542542 757.644104,567.016785 757.649048,565.690186 
	C757.662354,562.109619 757.653564,558.528931 757.653564,553.904114 
	C755.800659,562.168884 754.170288,569.440918 752.388489,577.445618 
M713.350098,448.397614 
	C714.651306,453.980927 717.124146,458.848450 721.959167,463.638947 
	C721.959167,461.875916 722.150024,461.277283 721.931396,460.986420 
	C716.124756,453.260712 713.118286,444.665344 713.596191,434.924408 
	C713.673889,433.340118 713.338989,431.832855 710.829651,432.397064 
	C710.154053,435.428741 709.184326,438.936707 711.442932,441.288147 
	C713.433350,443.360321 713.193542,445.364075 713.350098,448.397614 
M619.981018,325.669495 
	C624.702332,324.604156 622.481934,329.634003 625.186096,331.648254 
	C624.606445,328.303131 627.468445,326.613068 626.945435,323.180847 
	C620.962036,325.172302 615.046509,324.072815 609.135010,323.884918 
	C612.228333,326.629669 615.798096,325.300598 619.981018,325.669495 
M725.245728,431.754639 
	C724.551208,434.288483 723.816406,436.820557 725.021973,440.122589 
	C725.809265,432.552063 728.166687,426.611053 735.339050,423.536804 
	C734.623108,422.711304 735.276917,421.138000 733.378601,420.886017 
	C729.379089,423.087250 726.604980,426.403259 725.245728,431.754639 
M769.244385,556.750916 
	C768.955627,556.800659 768.654114,556.816772 768.385315,556.918945 
	C768.295105,556.953308 768.199341,557.282959 768.256104,557.349304 
	C771.683289,561.356934 769.804382,565.238708 768.047852,569.162842 
	C767.484985,570.420471 766.759827,571.830872 768.707825,573.346191 
	C771.817078,567.877686 771.726013,562.586365 769.244385,556.750916 
M758.260620,358.831696 
	C758.260620,362.329620 758.260620,365.827545 758.260620,369.325439 
	C758.785645,369.300354 759.310730,369.275269 759.835754,369.250183 
	C760.592590,365.698883 762.084106,362.135223 758.260620,358.831696 
M735.050415,464.353973 
	C734.326660,465.857788 733.602905,467.361603 732.367004,469.929474 
	C739.567444,463.376770 739.567444,463.376770 737.148132,458.221283 
	C737.781311,460.497162 736.504028,462.090881 735.050415,464.353973 
M763.057495,548.375061 
	C759.195496,546.374023 759.078125,548.711426 759.225647,552.559753 
	C761.453613,549.989136 763.406189,550.973206 765.305542,552.122742 
	C765.859192,550.169434 764.596985,549.515381 763.057495,548.375061 
z"/>
<path fill="#000000" opacity="1.000000" stroke="none" 
	d="
M409.004883,725.995117 
	C414.249359,728.732239 419.493835,731.469299 424.704651,734.188843 
	C428.278259,728.164001 425.902771,718.465515 419.439209,713.605835 
	C413.076630,708.822021 406.142578,705.243530 397.725739,708.195251 
	C395.298950,709.046326 394.285461,707.655273 393.910675,705.613892 
	C393.433746,703.015930 391.431305,699.877258 395.439270,698.384949 
	C397.585052,697.586060 399.962280,697.191467 402.261017,697.056519 
	C415.326904,696.289612 430.446960,705.991577 435.246765,718.085815 
	C441.199524,733.085083 433.912415,751.385010 419.290833,758.133057 
	C417.832275,758.806213 416.345947,759.419067 415.057220,760.449097 
	C422.113708,760.306030 428.589386,759.109314 432.356903,751.987366 
	C434.264404,748.381470 435.716522,744.444153 439.030396,741.264832 
	C441.491943,750.885193 445.344269,759.084290 456.599426,761.027222 
	C457.006958,761.001282 456.987396,760.981567 456.987396,760.981567 
	C453.886475,762.989563 456.172485,764.031006 457.870392,764.434387 
	C463.730804,765.826477 469.077362,768.588806 474.218933,771.393738 
	C476.725067,772.760864 478.599304,775.920593 481.566101,777.656616 
	C480.918121,778.814453 479.866150,779.850281 479.808502,780.938843 
	C479.509247,786.591187 475.859711,787.481689 471.292847,787.365173 
	C467.311218,787.263489 463.308594,787.479065 459.349457,787.146729 
	C455.381256,786.813660 453.125610,783.138977 449.733276,781.506104 
	C447.814789,780.582581 446.231384,779.905823 443.815430,780.972290 
	C447.634705,785.345032 453.200806,786.628967 457.661469,789.645691 
	C456.655060,792.624023 454.957947,791.888611 453.222290,791.159302 
	C450.869873,790.170898 448.362213,789.221436 446.222870,791.309631 
	C443.491089,793.976135 441.323486,792.404236 439.283752,790.606079 
	C437.146698,788.722046 437.490692,786.536560 439.087585,784.372070 
	C439.858185,783.327576 440.839874,782.334106 440.696899,779.972351 
	C437.519165,781.994446 434.597046,783.420227 434.247528,787.381470 
	C434.010284,790.070374 433.426483,792.089905 429.943329,792.285217 
	C426.639099,792.470581 426.339447,795.580444 426.457123,797.994324 
	C426.764282,804.295715 423.406311,807.705261 417.888336,809.219421 
	C410.673615,811.199158 405.428619,816.676331 398.540894,819.404175 
	C389.678925,822.913757 381.605286,822.850037 373.898621,817.384033 
	C364.737305,810.886230 353.737701,808.883484 343.689484,804.573608 
	C340.482330,803.197998 337.023560,802.329163 334.249573,800.155579 
	C325.517059,793.313110 315.458008,788.280029 307.954926,779.695068 
	C304.303925,775.517456 298.714752,773.080200 294.808105,769.070618 
	C284.597229,758.590881 274.775574,747.728394 264.913391,736.913940 
	C261.116180,732.750000 256.973419,728.950806 253.466980,724.444458 
	C250.028412,720.025391 247.884232,715.353760 247.252014,710.008118 
	C246.110825,700.359009 242.138351,692.046265 235.487732,685.179565 
	C230.610672,680.144104 226.766174,674.605103 225.019608,667.881348 
	C222.835175,659.471741 216.325378,653.440308 213.433121,645.338379 
	C210.102722,636.009094 213.367905,628.232971 223.068985,625.780579 
	C228.374451,624.439331 233.322464,622.074463 238.839035,621.203796 
	C243.957382,620.396057 247.271896,616.905029 248.010498,611.341736 
	C249.045425,603.546265 252.282211,596.352661 254.494034,588.877930 
	C256.997681,580.417114 256.847748,579.986694 249.073685,575.533081 
	C248.227768,575.048462 247.227356,574.676941 246.856949,572.607483 
	C252.551422,573.323792 256.342102,568.437561 262.302429,568.579285 
	C273.170898,568.837708 283.721771,566.101562 294.119812,563.051147 
	C297.718445,561.995361 301.684082,563.697266 306.447449,561.184631 
	C300.487915,559.568787 295.925201,561.347351 291.403198,561.919373 
	C283.157959,562.962402 274.960571,564.390930 266.752625,565.716797 
	C264.682068,566.051270 262.795502,565.664734 260.501465,564.600403 
	C264.971558,558.566833 258.992493,555.374146 255.558487,550.207520 
	C272.388977,557.720520 286.857239,549.487915 301.828583,547.914551 
	C296.218140,546.760925 292.327759,547.755981 287.208038,548.686218 
	C279.562683,550.075256 271.716034,551.171875 263.931000,550.028259 
	C260.307526,549.496033 258.114014,546.060242 256.524902,543.120850 
	C255.287735,540.832397 253.647873,538.657104 252.846313,536.185242 
	C252.139572,534.005859 250.866989,533.456482 248.830170,533.273743 
	C239.889511,532.471191 239.617432,532.653931 238.047714,541.762695 
	C238.047714,539.341187 238.038696,536.919678 238.049896,534.498230 
	C238.065262,531.178711 239.690033,529.447266 242.981705,528.644165 
	C250.617203,526.781250 250.580887,526.658081 249.883041,518.821655 
	C249.406570,513.470825 248.460297,508.276978 245.585876,503.580505 
	C244.350861,501.562683 243.882126,499.239929 243.973618,496.857239 
	C244.095657,493.679626 244.129929,490.533875 241.674698,487.854248 
	C244.472672,485.286591 247.066635,484.855713 249.642715,487.310181 
	C250.577072,488.200470 251.473251,488.733887 252.678741,488.680725 
	C258.529449,488.422852 263.857819,490.649780 269.371918,491.772980 
	C277.027588,493.332458 285.107849,494.830627 293.292053,493.789856 
	C285.924988,492.300293 278.565552,490.771881 271.188873,489.331573 
	C263.031403,487.738861 254.856781,486.233948 246.692688,484.674835 
	C244.478653,484.251984 243.386826,482.987366 242.979919,480.644592 
	C241.975632,474.862488 235.763336,470.256775 230.241226,471.785309 
	C225.652695,473.055481 230.198456,475.688080 230.053162,477.933746 
	C228.854141,479.675446 226.980652,479.490112 225.337112,478.676208 
	C223.332764,477.683685 222.767761,475.617889 223.013947,473.538696 
	C223.463684,469.740601 223.893097,465.914001 224.747696,462.195068 
	C226.905823,452.803864 228.083633,443.192108 231.078903,433.987701 
	C231.375275,433.076935 231.620667,432.010620 231.436295,431.109222 
	C230.947174,428.717865 231.469482,426.687714 233.508286,425.423706 
	C235.758621,424.028564 238.108429,425.226349 240.243256,425.975952 
	C242.642990,426.818512 241.800491,428.919861 241.454727,430.688477 
	C239.221161,442.113708 236.958923,453.533417 234.761276,464.965515 
	C234.408325,466.801666 233.276337,469.024231 236.852234,470.170746 
	C244.174255,471.790588 250.924057,473.173035 257.701599,474.402588 
	C260.219177,474.859314 260.838196,472.772217 261.081604,470.991943 
	C262.179688,462.960754 264.637451,455.152618 265.195129,446.682556 
	C265.875580,443.922241 266.429382,441.495514 266.815735,439.042389 
	C267.394379,435.368591 269.869049,435.520538 272.416870,436.355194 
	C274.746613,437.118408 278.745056,436.192963 277.735107,440.957581 
	C276.808228,445.330109 275.950714,449.717499 275.083496,454.102478 
	C274.714478,455.968292 273.908020,458.015839 276.753082,458.999084 
	C277.931702,457.605927 277.504547,456.056183 277.660950,454.629913 
	C278.124939,450.399048 276.684601,446.145996 280.192902,442.054016 
	C282.881317,438.918243 280.050415,434.460754 275.741730,434.508881 
	C266.504608,434.612000 265.203979,432.324097 265.242859,443.551025 
	C265.246887,444.711151 265.103546,445.871826 264.677917,447.119873 
	C260.803436,449.008270 261.029694,452.395294 261.413116,455.375916 
	C262.260651,461.965027 258.685364,467.149506 256.563629,474.514771 
	C255.522369,470.464996 253.582184,470.229614 251.313766,470.250244 
	C246.531219,470.293823 241.746674,470.118317 236.962952,470.032715 
	C237.428558,464.184631 237.934784,458.195068 239.050125,452.593170 
	C240.439148,445.616608 242.378586,438.816925 243.400192,431.661255 
	C243.941833,427.867401 246.607864,424.715576 241.919342,422.662018 
	C234.660995,419.482910 231.098907,420.875427 228.336838,426.972900 
	C228.287323,427.082214 228.049591,427.106201 227.574570,427.308380 
	C225.119400,425.748108 225.770340,423.867584 227.618286,422.419373 
	C231.555511,419.333740 235.654953,416.444397 241.096191,416.887848 
	C244.853439,417.194031 247.029861,415.351959 247.930893,411.757965 
	C249.318909,406.221436 252.523071,401.587524 256.696198,398.053772 
	C261.272064,394.178955 262.947937,388.819336 265.744415,384.012085 
	C266.289429,383.075165 266.318268,382.110352 265.930176,381.135162 
	C264.940338,378.648224 265.719147,376.378174 267.328491,374.631226 
	C272.534332,368.980560 275.338074,362.007690 278.315277,355.150970 
	C281.993256,346.680389 288.886688,341.476990 295.977844,336.335663 
	C298.178772,338.284821 296.576385,340.171356 295.953522,341.048767 
	C293.564575,344.414215 291.779266,347.896149 290.028076,351.685486 
	C286.606049,359.090424 286.463837,365.278839 289.855316,372.726624 
	C292.501740,378.538177 294.981964,384.181793 300.350922,387.617157 
	C303.375183,389.552216 305.951477,392.913483 311.960907,392.449890 
	C302.675385,388.000031 296.121582,382.578613 292.587433,374.189667 
	C289.006653,365.689941 289.218689,357.235443 293.334167,349.105164 
	C301.263947,333.439453 314.663116,328.447266 329.707703,330.884155 
	C340.780151,332.677704 352.512482,346.025909 353.254425,356.652130 
	C354.020538,367.623718 350.602631,377.054352 342.718658,384.696625 
	C334.997009,392.181549 325.281281,394.261810 313.706451,393.267303 
	C318.737610,397.571106 326.614410,398.008789 330.807495,394.505707 
	C333.768860,392.031616 337.076599,392.886719 340.206543,392.215759 
	C341.700897,391.895355 342.551300,393.073425 343.071136,394.460449 
	C344.645630,398.661591 346.589417,402.699341 344.755249,407.453949 
	C343.407471,410.947784 345.234924,414.095520 347.341064,416.674072 
	C351.505066,421.772186 352.009460,427.168274 349.538544,433.042511 
	C347.472290,437.954773 347.042084,442.976471 348.116364,448.203369 
	C349.580719,455.328613 348.322937,462.321625 345.383301,468.704071 
	C339.843689,480.731506 339.953064,493.213379 341.349731,505.844086 
	C342.043762,512.120911 343.625031,518.294556 344.538910,524.553650 
	C345.366913,530.224609 348.280182,534.506165 352.775757,537.722839 
	C362.118622,544.407837 371.388184,551.164612 379.805115,559.027649 
	C382.741821,561.771179 386.198608,563.808167 389.862305,565.481140 
	C402.817017,571.396790 408.665009,583.394897 414.723877,595.052856 
	C416.594025,598.651184 418.339325,602.123108 421.392883,604.844666 
	C424.267456,607.406677 426.633118,610.394104 428.812927,613.581726 
	C430.204498,615.616699 431.788300,617.913147 433.859131,619.019409 
	C441.016235,622.842651 446.121368,629.534180 453.062531,633.243530 
	C463.732025,638.945190 469.828064,648.671753 477.211212,657.339111 
	C481.975677,662.932251 485.302979,669.549927 489.499176,675.483215 
	C496.664459,685.614868 505.692841,694.103149 518.679199,696.399780 
	C523.364563,697.228394 526.998169,698.982239 529.912476,702.947815 
	C531.827942,705.554260 534.806030,707.411621 537.418579,709.464050 
	C539.585815,711.166687 541.710449,711.049805 543.510925,708.753479 
	C545.379517,706.370361 547.925842,705.288208 550.869507,705.025452 
	C552.737671,704.858643 554.510681,704.367920 555.969055,703.180359 
	C559.349609,700.427673 563.141541,700.164307 567.292664,700.749084 
	C579.043274,702.404602 588.703003,696.178772 594.252625,685.491455 
	C598.419250,677.467529 605.908508,672.049133 613.509338,667.221130 
	C615.161011,666.171997 627.001709,670.631165 628.205444,672.693237 
	C630.055359,675.862122 632.786560,677.092651 635.715271,675.265503 
	C639.257507,673.055481 644.548401,671.956604 643.862366,665.868652 
	C643.483948,662.510559 642.223206,659.479065 640.712036,656.424072 
	C645.399597,660.063965 647.862671,665.453369 651.782288,669.662537 
	C653.504333,671.511719 651.549988,673.726501 648.647461,674.425171 
	C638.786987,676.798767 631.541748,683.236206 627.012512,691.719116 
	C623.855530,697.631897 621.715393,704.671204 623.839722,711.876099 
	C624.129517,712.859070 624.413696,713.801575 623.126892,715.357849 
	C620.134033,711.865540 615.229553,711.500610 611.999146,708.037231 
	C610.616089,706.554382 608.504395,706.301392 606.452759,706.308167 
	C600.953247,706.326294 595.400391,706.764282 589.970459,706.144226 
	C585.455139,705.628662 583.521301,709.547546 580.063965,710.851318 
	C575.694946,712.498596 570.827942,714.668701 567.901489,719.229553 
	C565.389038,723.145264 565.592468,727.277771 566.965576,731.095825 
	C568.425476,735.154785 572.650024,734.908203 576.268799,735.010437 
	C577.324097,735.040222 578.039734,734.476440 578.557495,733.440552 
	C583.256042,724.039673 591.097412,720.607422 601.809875,722.286987 
	C605.792664,722.911438 608.329163,724.351013 610.384216,728.589050 
	C605.908630,729.183411 602.084717,730.295227 598.337036,732.080688 
	C591.274475,735.445679 583.672546,737.664612 576.370056,740.550354 
	C574.622559,741.240845 572.851196,741.410339 571.091064,741.825439 
	C566.582520,742.888916 564.729492,746.304077 566.865845,750.344604 
	C572.240906,760.510315 578.107727,770.330933 591.607178,771.499512 
	C592.005981,772.368591 591.861145,773.309509 591.117615,773.725464 
	C587.719238,775.626404 585.594910,777.825684 584.972961,782.249329 
	C584.424683,786.149292 580.008179,786.738464 576.767090,785.313843 
	C571.048706,782.800110 565.866638,783.393982 560.522583,786.136780 
	C558.440979,787.205261 556.140198,787.303833 554.245605,785.288452 
	C554.678223,784.742004 554.846130,784.309631 555.071289,784.277283 
	C562.767334,783.173767 562.810120,783.178894 562.750244,775.102356 
	C562.712280,769.976929 562.294617,765.089966 560.390076,760.028992 
	C558.785828,755.765808 559.816956,750.500061 559.737732,745.677185 
	C559.677734,742.027527 559.204346,738.815063 556.777100,735.562805 
	C554.513489,732.529907 555.564819,728.134155 555.745544,724.361694 
	C555.936707,720.371216 554.443848,719.199036 550.550415,719.226135 
	C539.222900,719.305054 540.221130,717.325928 540.342224,729.586243 
	C540.382996,733.705994 540.707703,737.608582 542.407959,741.896179 
	C544.974792,748.369019 544.015320,756.147339 542.618408,763.053772 
	C542.111450,765.560303 538.287048,768.792297 534.830200,769.996582 
	C524.772644,773.500183 524.735535,773.383911 524.154663,783.622864 
	C524.127625,784.098755 523.940857,784.565613 523.757385,785.334900 
	C520.284424,784.449829 517.949036,786.072693 515.493347,788.398621 
	C510.618835,793.015381 506.540863,793.127258 500.090729,789.532715 
	C498.278015,790.920288 497.876709,794.264160 494.201599,793.799866 
	C495.177612,790.840271 494.488129,787.827393 497.272827,784.831726 
	C500.143738,781.743408 499.571869,776.673035 497.670837,772.976562 
	C492.976196,763.848206 485.512573,757.707764 475.757019,754.130615 
	C470.675049,752.267334 466.114410,749.198730 460.857910,747.450867 
	C458.212555,746.571228 456.315063,743.018311 456.875031,739.531433 
	C457.412323,736.185242 459.690125,734.034485 462.754089,732.775208 
	C467.711212,730.737732 472.580505,732.417908 477.415039,733.360535 
	C484.429596,734.728149 490.396759,738.144653 495.249481,743.385010 
	C497.144928,745.431885 499.029816,744.918579 501.040802,743.826782 
	C501.306824,743.682373 501.417053,743.276978 501.659821,743.059998 
	C510.100800,735.516724 508.931030,732.480713 499.275238,725.953552 
	C492.518158,721.385864 485.124969,719.176392 477.840942,717.248291 
	C471.038513,715.447693 463.645538,714.942200 456.193878,718.454529 
	C450.775360,721.008545 445.771637,723.146484 442.811981,729.089661 
	C439.847565,726.093018 438.941467,722.161499 438.521606,719.461487 
	C437.718292,714.295532 434.506073,711.414246 431.525940,708.199646 
	C423.110382,699.121948 412.865570,693.833862 400.164276,694.307312 
	C393.826080,694.543518 389.468231,698.267578 390.320892,702.943726 
	C391.040497,706.890259 393.114655,709.810425 397.728821,709.743347 
	C399.395111,709.719177 401.061951,709.730408 402.728546,709.729614 
	C411.826569,709.725403 420.491150,715.966736 423.412933,724.521179 
	C423.880096,725.888855 424.220612,727.126221 423.008820,728.159851 
	C421.772797,729.214233 419.611389,729.762817 418.878540,728.762085 
	C416.424042,725.410522 412.940826,726.613220 409.388306,725.656982 
	C408.637756,724.494507 408.521606,723.194885 408.048126,723.048157 
	C401.182404,720.919861 395.616058,716.122803 388.952209,713.734680 
	C385.735901,712.581970 381.941498,712.613892 378.631073,713.751099 
	C376.295715,714.553284 377.716370,717.329529 377.118591,719.129028 
	C376.922791,719.718384 376.618256,720.447144 376.137329,720.737183 
	C373.424255,722.372864 373.523132,724.977295 373.239532,727.685730 
	C372.238159,737.248596 376.142822,745.349976 381.788086,752.215698 
	C385.867706,757.177307 391.215485,761.964478 399.741119,760.399536 
	C398.484436,759.832153 397.931732,759.517090 397.339203,759.324646 
	C381.829132,754.286621 370.874329,737.520691 379.136017,718.854309 
	C381.299286,713.966675 381.939301,713.538879 386.842499,715.822083 
	C394.211182,719.253418 401.615631,722.607971 409.004883,725.995117 
M271.254028,380.156342 
	C267.826691,380.377899 268.535034,382.969574 268.006104,385.216339 
	C266.715393,390.699066 268.495728,397.725922 260.649506,400.219879 
	C258.552521,400.886475 256.981689,408.629608 257.986877,410.694183 
	C259.707367,414.227966 263.292511,415.810394 266.435547,414.423340 
	C259.378601,409.072601 259.378632,409.072632 260.044586,407.394531 
	C262.427551,401.389893 263.108368,401.008911 270.531342,401.841949 
	C268.043152,394.283234 268.725189,387.015350 272.678894,380.160950 
	C273.612091,380.496216 274.563751,380.787781 275.475494,381.173676 
	C281.860168,383.876038 281.887268,383.890991 279.982117,390.413116 
	C279.136200,393.309052 279.189240,396.099396 280.128723,398.876007 
	C280.789276,395.352936 279.793213,391.537689 283.527710,388.998871 
	C284.264069,388.498260 284.575562,387.055664 284.431580,385.779694 
	C284.000885,381.962982 275.981018,376.323090 272.317719,377.367432 
	C270.085175,378.003906 271.777130,379.091980 271.254028,380.156342 
M419.465363,744.707825 
	C422.313751,742.501831 420.245789,741.386169 418.404907,740.478333 
	C412.009094,737.324097 405.576080,734.244080 399.128784,731.196106 
	C395.470703,729.466736 392.183655,726.838257 388.039429,726.189819 
	C385.199860,735.009705 388.192780,743.129761 395.846588,747.932678 
	C403.561035,752.773499 411.925354,751.704834 419.009369,744.993225 
	C419.009369,744.993225 418.993073,745.019043 419.465363,744.707825 
M332.009369,715.998352 
	C332.009369,715.998352 331.972778,715.965454 331.866852,716.572937 
	C332.794952,722.226807 338.166931,717.981934 340.649811,720.591248 
	C338.314850,724.545593 339.139313,727.571533 343.301788,729.971130 
	C348.621704,733.038086 351.485229,732.934692 355.057831,729.592712 
	C362.018372,723.081604 367.411652,715.205322 373.917389,708.329529 
	C379.794342,702.118347 386.214325,696.433594 391.496124,689.641174 
	C392.733765,688.049500 393.291840,686.246033 391.875641,685.336975 
	C389.843048,684.032104 389.214172,681.780884 387.306946,680.366150 
	C383.624756,677.635071 379.838104,677.518921 376.618134,680.640869 
	C372.687592,684.451843 370.449646,689.614258 366.246277,693.202881 
	C359.518890,698.946411 355.142670,708.099731 343.665527,706.513062 
	C338.913300,705.856079 336.908081,702.475098 333.719116,700.283569 
	C329.197662,697.176208 328.758484,687.374146 333.103241,684.179810 
	C341.630676,677.910522 347.051575,668.744385 354.679718,661.689392 
	C357.188965,659.368652 358.862061,656.585022 357.315338,653.909912 
	C355.253235,650.343445 351.670807,647.792114 348.033844,645.652771 
	C347.645569,645.424438 346.485718,645.723389 346.269043,646.107605 
	C343.793701,650.498596 338.964508,652.361755 335.803101,655.930420 
	C330.415619,662.011902 325.071838,668.168762 320.213409,674.670349 
	C316.471771,679.677490 313.400665,685.111328 313.212189,691.825562 
	C313.104919,695.647644 314.996948,698.447815 316.100586,701.731689 
	C318.493958,708.853516 324.700470,715.050354 332.009369,715.998352 
M261.049774,586.908569 
	C258.104980,592.180908 255.487656,597.459656 255.131348,603.760437 
	C254.700912,611.371826 258.481781,617.518799 260.945282,624.191772 
	C261.822052,626.566711 264.357819,626.434387 265.335114,628.604980 
	C267.940399,634.391479 273.477753,638.623779 278.824615,639.184082 
	C291.455627,640.507751 304.807312,642.370911 314.429657,629.902527 
	C317.638550,625.744507 322.188354,622.001526 322.402344,616.845276 
	C322.762604,608.165588 324.908661,598.822571 319.394043,590.998169 
	C317.303253,588.031616 315.927551,584.603882 313.088501,581.932983 
	C309.455688,578.515320 305.081421,577.033081 301.003693,574.694458 
	C290.894745,568.896790 281.864777,573.327698 272.996521,576.556213 
	C268.503815,578.191772 265.153503,582.965393 261.049774,586.908569 
M284.360596,661.908203 
	C283.267212,666.613159 286.770813,669.539917 289.039215,672.657349 
	C290.673279,674.903076 294.160034,676.134277 296.459473,673.504089 
	C299.883545,669.587463 304.455719,667.452209 308.571655,664.682556 
	C316.215637,659.538696 323.878174,654.433411 330.765778,648.314819 
	C332.474762,646.796692 333.983551,645.953857 336.223267,645.503845 
	C338.836761,644.978699 340.784607,643.052490 341.518066,640.191772 
	C339.370453,639.237549 338.427399,640.740784 337.287750,641.524475 
	C323.581116,650.950073 309.790527,660.260010 296.275024,669.953186 
	C292.548431,672.625854 291.230316,670.838562 289.275818,668.157471 
	C287.173340,665.273438 285.935913,663.000488 289.753754,660.350403 
	C304.103180,650.389709 318.345215,640.273682 332.574127,630.140869 
	C335.029602,628.392334 336.613281,628.605103 338.177063,631.264587 
	C339.590271,633.667969 340.900787,636.362305 344.275482,636.911987 
	C342.113068,633.396667 341.020996,629.116943 336.829559,627.164734 
	C335.768219,626.670471 334.641144,626.460815 333.475464,627.093445 
	C326.445862,630.908325 320.221466,636.032837 313.808105,640.646973 
	C308.891510,644.184204 302.301788,646.010986 299.137695,651.924622 
	C299.079224,652.033875 298.842804,652.085388 298.684235,652.098022 
	C292.349365,652.603333 289.915527,659.252075 284.360596,661.908203 
M342.321136,366.983154 
	C342.865967,364.923370 346.195740,364.583649 345.547943,361.782715 
	C342.337524,360.942963 341.977692,360.906158 340.786377,363.003326 
	C339.743774,364.838745 339.081390,366.893524 338.286530,368.865692 
	C335.003876,377.010834 324.504517,384.723236 314.827026,377.962952 
	C312.687469,376.468353 311.168457,374.559509 309.246765,372.998871 
	C306.109436,370.451080 303.805298,367.139862 303.695648,362.798187 
	C303.525085,356.044983 305.690460,350.542908 311.937866,347.139862 
	C314.944763,345.502014 317.871979,343.717957 320.264618,342.330933 
	C328.415649,346.592102 338.932892,347.499939 339.419342,360.081573 
	C342.269501,357.262329 341.321747,355.406494 340.594788,353.584625 
	C339.180054,350.038940 336.339386,347.643036 333.536926,345.325256 
	C327.249023,340.124664 317.723938,339.537476 311.109039,343.730347 
	C304.731598,347.772705 300.056213,357.437775 301.402710,363.795563 
	C303.352814,373.003479 311.730988,380.848267 320.590607,381.761871 
	C330.515015,382.785278 337.832977,377.996094 342.321136,366.983154 
M422.718445,786.848755 
	C426.879181,791.107971 427.598145,790.981812 429.092865,785.503967 
	C429.693665,783.302185 431.285950,781.868164 432.564301,780.148865 
	C434.030304,778.177124 434.824371,775.924194 432.367859,774.025269 
	C428.902740,771.346802 422.520721,771.883789 420.033417,774.976013 
	C416.676422,779.149414 417.354675,782.677673 422.718445,786.848755 
M270.280487,668.425842 
	C265.437164,671.989197 264.045868,675.710999 265.407013,681.462708 
	C266.523590,686.181213 271.622528,688.712891 277.892029,687.661560 
	C281.077057,687.127441 284.940643,681.749390 284.629974,678.282349 
	C283.994446,671.189514 279.897339,668.182739 270.280487,668.425842 
M301.509888,488.688080 
	C301.323120,489.495331 301.154510,490.307343 300.945435,491.108795 
	C300.616943,492.367981 299.843048,494.026672 301.787323,494.322906 
	C303.711487,494.615997 303.539734,492.826111 303.554688,491.508392 
	C303.577271,489.520905 303.464722,487.523071 303.628479,485.547760 
	C304.000427,481.061310 302.086639,479.184753 297.548676,479.331970 
	C294.291504,479.437653 290.528870,480.537262 287.841309,478.475342 
	C284.048859,475.565796 280.332855,476.394928 275.732819,476.825439 
	C278.206940,478.484070 280.381927,478.545654 282.460388,478.999176 
	C287.779022,480.159729 293.231354,480.549835 298.494080,482.108887 
	C301.787292,483.084503 302.848541,484.758148 301.509888,488.688080 
M272.126953,473.824310 
	C272.223175,473.957123 272.293701,474.132660 272.423035,474.210388 
	C272.545898,474.284271 272.788635,474.331329 272.879120,474.261353 
	C275.431061,472.288147 274.956940,470.037811 273.698944,467.283936 
	C272.137634,469.338531 272.054688,471.294739 272.126953,473.824310 
z"/>
<path fill="#000000" opacity="1.000000" stroke="none" 
	d="
M699.782715,709.090088 
	C701.310913,714.307617 696.924927,715.276001 694.261230,716.907898 
	C690.643311,719.124390 690.624695,714.041138 687.837280,713.056641 
	C686.208801,721.724854 681.511169,728.417236 674.081177,733.123962 
	C666.575684,737.878540 658.546082,739.668396 649.791077,737.315247 
	C636.268494,733.680847 624.319946,718.008179 626.573364,701.997498 
	C628.604614,687.564880 641.545349,677.053406 659.864929,676.150940 
	C655.504944,669.901733 651.277893,663.782043 646.982727,657.710449 
	C644.507568,654.211487 645.910339,649.125549 649.852173,647.477661 
	C651.752014,646.683411 652.682007,648.078430 653.580872,649.170288 
	C658.123657,654.688354 662.700989,660.184753 667.044128,665.858826 
	C677.961975,680.122009 688.760315,694.476685 699.782715,709.090088 
M655.170715,726.685181 
	C664.160400,727.862305 671.115662,724.634827 675.901917,716.942810 
	C680.597778,709.396240 679.405457,702.119019 674.702515,695.037170 
	C669.481750,687.175598 660.007996,683.999329 650.802917,687.081909 
	C642.077454,690.003845 637.196228,697.427307 638.096375,707.235657 
	C639.019958,717.299500 645.052490,723.361328 655.170715,726.685181 
M652.277405,655.310303 
	C651.990906,653.795776 651.679016,652.224243 649.612732,652.494751 
	C648.677734,652.617188 648.151123,653.527222 648.422241,654.356506 
	C649.013733,656.165894 650.108643,657.242432 652.277405,655.310303 
z"/>
<path fill="#000000" opacity="1.000000" stroke="none" 
	d="
M580.465820,741.486084 
	C591.672302,737.259033 602.508789,733.160095 613.977600,728.821960 
	C611.122559,723.457092 607.291931,720.239380 602.016907,719.425659 
	C591.462463,717.797546 582.530212,720.830566 576.526794,730.113159 
	C574.206299,733.701111 572.114746,731.565186 569.809570,730.514404 
	C567.226440,729.336853 566.403564,727.710266 567.853760,724.965454 
	C574.401062,712.573486 596.200562,702.079468 613.600037,712.055603 
	C627.901733,720.255859 633.608215,741.478333 624.500488,755.647949 
	C617.911865,765.898499 607.873779,770.520447 595.989746,769.729675 
	C583.341370,768.888062 574.974915,761.532593 570.305176,749.844238 
	C569.223083,747.135681 569.838379,745.369385 572.640015,744.383179 
	C575.140381,743.502991 577.611755,742.540344 580.465820,741.486084 
M593.850159,745.326050 
	C590.223694,747.183899 585.982483,747.699585 582.615723,750.137695 
	C587.374573,760.046570 597.643494,763.271790 607.334595,758.133972 
	C616.215576,753.425720 620.472717,744.108704 616.580261,737.486572 
	C608.972595,739.099243 602.111084,743.065125 593.850159,745.326050 
z"/>
<path fill="#000000" opacity="1.000000" stroke="none" 
	d="
M501.172791,296.373657 
	C489.248901,302.402954 477.698029,303.172729 466.041321,296.599091 
	C457.823975,291.965057 453.500854,284.450500 452.096497,275.734833 
	C449.630493,260.430115 454.839050,247.862366 469.766296,242.057236 
	C490.423706,234.023712 508.643341,244.685486 511.569305,266.492157 
	C512.165588,270.936188 508.959778,270.599365 506.636780,270.933167 
	C495.770294,272.494446 484.864899,273.782562 473.981506,275.229492 
	C470.890045,275.640472 467.825989,276.257660 464.782745,276.774628 
	C465.449921,283.971985 472.422150,290.116638 480.169769,290.736816 
	C488.349579,291.391571 495.762268,289.630615 501.740173,283.725372 
	C503.975281,281.517456 505.509827,282.493561 507.189606,284.216858 
	C508.815674,285.885071 510.932434,287.418610 508.662048,290.061523 
	C506.588837,292.474945 504.307404,294.647888 501.172791,296.373657 
M467.140289,255.671524 
	C464.624939,259.178467 462.250580,262.727631 463.550537,267.960815 
	C475.556183,266.434814 487.412628,264.927765 499.537689,263.386566 
	C498.180145,255.499695 493.215363,251.678802 487.289398,249.925186 
	C480.080933,247.792053 473.129822,249.449478 467.140289,255.671524 
z"/>
<path fill="#000000" opacity="1.000000" stroke="none" 
	d="
M457.019257,761.008789 
	C455.318115,758.880249 452.734131,757.956482 450.592926,756.416016 
	C443.791779,751.522827 440.557068,743.755676 442.368195,736.433838 
	C444.557068,727.585083 450.866547,721.421143 459.348877,720.390747 
	C474.349274,718.568481 488.497833,720.533386 500.878815,730.170471 
	C505.520386,733.783447 505.475739,738.861755 500.497589,741.895813 
	C498.215759,743.286499 497.227356,741.362793 495.891571,740.248413 
	C487.026154,732.852417 477.109619,728.369263 465.272644,729.196716 
	C459.371368,729.609314 455.120789,732.846130 453.870544,737.908630 
	C452.754425,742.428040 454.861053,746.631714 460.390961,749.515320 
	C468.037445,753.502747 476.031799,756.836914 483.592560,760.971313 
	C493.611450,766.449768 497.361206,775.580200 494.186035,785.227112 
	C490.864380,795.319214 480.750153,801.838684 469.922760,800.043274 
	C463.645050,799.002380 456.744781,800.644226 451.151489,796.216614 
	C450.783508,795.925293 450.444489,795.597412 449.642273,794.890076 
	C453.411377,794.101685 456.715790,793.986450 460.498779,794.992371 
	C460.793304,790.840942 463.545258,790.801208 466.658539,790.968506 
	C470.788177,791.190491 474.918060,791.495300 478.553131,788.558411 
	C485.319305,783.091614 485.225891,775.484253 477.880768,770.803101 
	C471.570160,766.781250 464.721436,763.752686 457.357025,761.033936 
	C456.987396,760.981567 457.006958,761.001282 457.019257,761.008789 
z"/>
<path fill="#000000" opacity="1.000000" stroke="none" 
	d="
M532.350586,287.239685 
	C531.834900,289.948029 531.387939,292.231903 530.927002,294.513000 
	C530.532349,296.466339 529.785889,298.317749 527.359131,297.529419 
	C525.250366,296.844391 524.070068,295.322174 525.246338,292.866638 
	C525.897644,291.507111 526.391296,290.050659 524.960449,288.759094 
	C522.199097,288.232086 522.918884,291.328217 521.105347,292.383240 
	C521.136353,289.087524 520.002747,285.630493 525.178101,285.705414 
	C526.063049,285.718201 526.453125,284.555634 526.439941,283.767731 
	C526.349548,278.383179 530.392700,272.722656 525.367920,267.620514 
	C524.904236,267.149719 525.084839,266.044434 524.933411,265.009064 
	C529.734253,263.654785 529.573486,261.569672 527.699158,257.093689 
	C525.242004,251.225845 527.220825,244.531189 529.575317,238.783615 
	C530.670654,236.109863 534.740173,237.801880 537.424683,238.245102 
	C539.754761,238.629837 540.052979,240.400467 539.505249,242.484940 
	C539.264465,243.401245 539.349426,244.403107 539.234802,246.156570 
	C549.034546,239.749023 558.812622,239.533859 568.758667,243.741913 
	C579.231689,248.172913 583.920166,257.815582 581.935791,270.557068 
	C580.399414,280.421387 578.794556,290.275055 577.237305,300.136169 
	C576.839417,302.655609 576.708618,305.337219 573.005188,304.970184 
	C569.365295,304.609406 565.134949,300.689178 566.018188,297.858002 
	C567.845215,292.002136 566.961914,285.419067 569.610718,280.109497 
	C572.023071,275.273773 571.317871,270.887451 571.032349,266.185730 
	C570.542969,258.126434 566.290100,253.164993 558.498596,251.571014 
	C549.222290,249.673294 541.589172,252.913681 538.067871,260.065430 
	C534.666382,266.973938 534.992615,274.650879 533.341431,281.916504 
	C532.973450,283.535706 532.719604,285.180817 532.350586,287.239685 
z"/>
<path fill="#000000" opacity="1.000000" stroke="none" 
	d="
M740.619568,605.312134 
	C754.285400,611.497742 767.647888,617.433350 780.916260,623.572266 
	C787.246277,626.501099 787.208923,626.825256 783.905762,632.698547 
	C783.420959,633.560547 783.021545,634.470520 782.458557,635.609192 
	C772.370667,631.506409 762.131775,627.832397 752.215393,623.267822 
	C738.616150,617.007996 724.789978,611.242920 711.120239,605.133606 
	C705.900574,602.800842 705.440857,596.441833 710.100647,593.209961 
	C711.563843,592.195190 712.929993,592.973389 714.311951,593.591187 
	C722.960266,597.458008 731.620972,601.297302 740.619568,605.312134 
z"/>
<path fill="#000000" opacity="1.000000" stroke="none" 
	d="
M555.255981,736.733521 
	C556.930176,750.217468 558.588379,763.247498 560.206055,776.282532 
	C560.520752,778.818176 559.461731,780.582031 556.808899,780.865356 
	C554.227966,781.140991 551.313782,781.938660 549.926025,778.602417 
	C549.423096,777.393372 549.220520,776.059326 548.713928,774.154602 
	C544.777527,779.236755 540.320374,782.950684 534.286072,784.219177 
	C532.135376,784.671387 529.510132,786.392151 528.270447,783.169922 
	C527.199158,780.385315 527.527405,777.470947 530.264221,775.567383 
	C531.609924,774.631470 533.210510,774.032288 534.746521,773.404968 
	C542.269836,770.332214 545.587830,764.572571 545.820679,756.637207 
	C546.106506,746.898499 543.857910,737.447876 542.614014,727.894226 
	C542.066956,723.692993 543.819031,722.065002 547.307312,721.171509 
	C551.381226,720.127991 553.187317,722.279358 553.910706,725.900818 
	C554.595398,729.328613 555.399170,732.743835 555.255981,736.733521 
z"/>
<path fill="#000000" opacity="1.000000" stroke="none" 
	d="
M345.671051,254.031219 
	C349.393768,254.839081 349.553436,257.018158 347.943512,259.283600 
	C345.053986,263.349640 341.286285,266.208893 335.991394,266.418091 
	C334.213562,266.488312 332.623657,266.180634 331.682648,264.556061 
	C330.734467,262.919098 331.247742,261.251556 332.224396,259.860504 
	C335.389557,255.352310 340.059204,254.042130 345.671051,254.031219 
z"/>
<path fill="#000000" opacity="1.000000" stroke="none" 
	d="
M221.768311,444.360931 
	C221.836075,441.271729 221.778259,438.612305 221.851440,435.956482 
	C221.917053,433.575928 222.187820,431.240143 226.473785,430.544708 
	C225.801178,436.272156 227.758621,442.098267 225.403702,447.073853 
	C223.474243,451.150452 223.186142,454.967346 223.338776,459.064178 
	C223.457657,462.254425 222.548538,464.542816 218.496109,465.923492 
	C217.889938,458.407623 219.154556,451.528229 221.768311,444.360931 
z"/>
<path fill="#000000" opacity="1.000000" stroke="none" 
	d="
M250.252853,538.851318 
	C249.799088,541.863098 247.103271,541.140137 245.737839,542.030762 
	C244.340256,543.888977 246.634033,545.757568 244.562881,548.407959 
	C244.079193,544.459717 239.538589,541.968567 243.684586,538.200806 
	C245.782593,536.294250 248.254593,535.316284 250.252853,538.851318 
z"/>
<path fill="#000000" opacity="1.000000" stroke="none" 
	d="
M593.945679,773.242798 
	C596.461243,771.713135 598.666870,773.712341 601.658447,772.663147 
	C597.379395,777.835327 595.533325,777.853210 593.945679,773.242798 
z"/>
<path fill="#000000" opacity="1.000000" stroke="none" 
	d="
M253.613052,565.693726 
	C253.773712,568.840759 252.812149,569.011597 248.609924,566.651855 
	C249.826263,564.564148 251.619858,565.212402 253.613052,565.693726 
z"/>
<path fill="#000000" opacity="1.000000" stroke="none" 
	d="
M637.675598,286.648010 
	C641.686279,292.879303 638.434631,298.166901 635.380066,302.741394 
	C633.037476,306.249512 630.379150,309.862579 625.249451,311.179504 
	C618.552917,312.898682 605.514282,308.000244 604.098816,301.208130 
	C602.643127,294.222778 602.836060,286.796082 608.562622,281.357117 
	C612.515198,277.603027 616.703979,272.462219 623.060730,274.940918 
	C628.816345,277.185242 636.033203,278.358826 637.675598,286.648010 
z"/>
<path fill="#000000" opacity="1.000000" stroke="none" 
	d="
M722.507507,666.499695 
	C718.512085,673.105225 711.808655,672.614624 706.943604,670.848999 
	C701.393799,668.835022 696.916870,664.369019 693.311462,658.603149 
	C688.773499,651.345886 693.301880,647.353455 696.212524,642.568420 
	C699.832520,636.617371 705.626404,636.388977 712.171692,636.265869 
	C719.298157,636.131958 721.987549,641.424194 726.377625,644.669678 
	C730.333740,647.594360 729.766846,652.242126 729.152039,656.184387 
	C728.531311,660.164307 726.803223,664.112610 722.507507,666.499695 
z"/>
<path fill="#000000" opacity="1.000000" stroke="none" 
	d="
M332.029510,716.012451 
	C327.545593,712.638672 322.827881,709.475464 319.807526,704.512695 
	C313.851532,694.726440 313.993835,686.073547 321.547363,676.843750 
	C329.013275,667.721008 337.242554,659.217346 345.248474,650.545044 
	C348.573914,646.942871 350.468353,650.936768 352.685242,652.379578 
	C355.096619,653.949036 356.076385,655.928284 353.673492,658.503235 
	C347.884857,664.706299 342.183319,670.990723 336.440979,677.237061 
	C335.315674,678.461182 334.111755,679.616699 333.033936,680.880432 
	C326.003479,689.123596 325.838257,696.051453 332.470642,703.019104 
	C339.660065,710.571960 349.356628,711.793335 357.026550,705.429626 
	C363.621185,699.958069 369.975220,694.122375 374.945129,686.997009 
	C375.890533,685.641541 377.240204,684.570190 378.203217,683.224548 
	C380.743805,679.674500 382.997833,680.468384 385.925171,683.013428 
	C389.397827,686.032715 389.788330,687.893494 386.201141,691.576965 
	C374.947693,703.132568 364.272614,715.250366 353.316864,727.098022 
	C351.180786,729.407959 349.259399,733.022888 345.426178,728.867188 
	C342.629974,725.835815 340.058746,723.085205 344.809753,719.663086 
	C345.028381,719.505554 345.069702,719.101868 345.360962,718.422302 
	C340.836456,718.850403 336.858124,717.199158 332.364502,716.042236 
	C331.972778,715.965454 332.009369,715.998352 332.029510,716.012451 
z"/>
<path fill="#000000" opacity="1.000000" stroke="none" 
	d="
M258.611023,604.102600 
	C259.412506,589.451233 270.590424,577.569275 285.423523,575.140259 
	C299.695221,572.803162 313.163391,581.129944 318.872009,595.401306 
	C327.857513,617.864868 310.699799,639.380310 286.718353,638.459412 
	C272.683746,637.920532 259.683075,623.734985 258.703033,609.060486 
	C258.603333,607.567627 258.635590,606.065918 258.611023,604.102600 
M289.375153,624.206421 
	C281.323181,623.959290 274.983948,620.213379 272.413666,612.802063 
	C268.564941,601.704346 276.371399,595.468506 284.473541,589.793762 
	C279.380646,587.596069 272.159668,593.308594 269.563477,601.039917 
	C266.152313,611.198242 273.212280,623.797363 283.825836,626.492249 
	C295.569183,629.474121 308.826294,620.319763 310.687897,607.943481 
	C311.877228,600.036377 304.238251,588.879395 296.670990,588.795105 
	C304.315582,592.008850 305.207062,600.137817 309.820831,605.577698 
	C307.148499,607.550415 306.654907,610.563232 306.349854,613.496155 
	C306.018250,616.684692 303.951416,618.824158 301.608154,619.909668 
	C297.972839,621.593628 294.450745,623.924561 289.375153,624.206421 
z"/>
<path fill="#000000" opacity="1.000000" stroke="none" 
	d="
M419.020508,744.981750 
	C416.519958,745.238281 413.999664,744.735107 412.152710,747.642639 
	C411.002319,749.453674 401.300903,747.846558 399.170441,746.555481 
	C396.055908,744.668091 394.025482,742.011353 391.696259,739.321777 
	C389.159607,736.392700 389.968140,734.067078 390.101715,731.277710 
	C395.923340,730.757507 399.960327,734.457947 404.420074,736.638123 
	C408.276855,738.523560 412.164215,740.392822 416.164612,741.820435 
	C417.993622,742.473145 416.869324,744.662109 418.813293,744.872375 
	C418.993073,745.019043 419.009369,744.993225 419.020508,744.981750 
z"/>
<path fill="#000000" opacity="1.000000" stroke="none" 
	d="
M268.288025,682.114746 
	C266.244720,676.142944 266.582214,675.692810 273.713440,673.662048 
	C275.839813,673.056519 278.002411,671.151001 279.896118,673.937195 
	C281.478455,676.265259 281.933868,678.841736 280.846100,681.502747 
	C279.451355,684.914734 275.767303,686.119751 272.449127,684.362915 
	C271.151031,683.675720 269.830841,683.030273 268.288025,682.114746 
z"/>
<path fill="#000000" opacity="1.000000" stroke="none" 
	d="
M665.044678,690.241455 
	C671.208313,693.822205 675.236267,699.223877 676.758362,705.344421 
	C677.568481,708.601929 676.173523,713.337585 672.852112,716.701782 
	C669.501831,720.095215 665.187256,722.110474 661.893616,725.521606 
	C660.462769,727.003479 657.659790,726.944885 656.234924,725.858521 
	C649.887756,721.019592 642.751465,716.825928 640.055176,708.508972 
	C638.640381,704.144714 641.158203,700.882385 642.844055,697.359497 
	C646.709595,689.281799 657.292847,685.766724 665.044678,690.241455 
z"/>
<path fill="#000000" opacity="1.000000" stroke="none" 
	d="
M600.217529,745.006104 
	C606.128479,744.456787 610.771606,740.319946 616.719727,741.051697 
	C616.915039,741.952026 617.799255,743.464233 615.875916,743.871460 
	C614.310913,744.202820 614.130127,745.346680 613.833618,746.363281 
	C610.919922,756.354736 602.255493,758.355103 594.104736,757.134033 
	C591.517700,756.746399 590.354370,754.197571 588.160950,752.882874 
	C590.782532,747.847961 597.096619,749.150024 600.217529,745.006104 
z"/>
<path fill="#000000" opacity="1.000000" stroke="none" 
	d="
M474.853210,265.291931 
	C473.232056,265.299805 472.065369,265.368103 470.909332,265.286102 
	C469.319885,265.173309 467.307953,265.574158 466.905151,263.314240 
	C466.589874,261.545349 466.462799,259.810944 468.554657,258.591003 
	C471.525269,256.858643 472.406036,252.213959 477.079529,252.700119 
	C481.737488,253.184677 486.771362,251.306213 490.895477,254.935806 
	C492.599884,256.435852 494.536316,257.877838 494.062103,261.196136 
	C487.316132,260.185364 481.657990,264.117401 474.853210,265.291931 
z"/>
</svg>