<?xml version="1.0" standalone="no"?>
<!DOCTYPE svg PUBLIC "-//W3C//DTD SVG 20010904//EN"
 "http://www.w3.org/TR/2001/REC-SVG-20010904/DTD/svg10.dtd">
<svg version="1.0" xmlns="http://www.w3.org/2000/svg"
 width="1080.000000pt" height="1080.000000pt" viewBox="0 0 1080.000000 1080.000000"
 preserveAspectRatio="xMidYMid meet">
<metadata>
Created by potrace 1.16, written by Peter Selinger 2001-2019
</metadata>
<g transform="translate(0.000000,1080.000000) scale(0.100000,-0.100000)"
fill="#000000" stroke="none">
<path d="M5522 7998 c-28 -172 -50 -313 -49 -315 2 -1 28 -5 58 -9 l55 -6 28
178 c28 178 40 219 80 262 70 78 229 72 289 -10 31 -42 31 -108 -2 -308 -16
-101 -29 -186 -27 -187 1 -1 27 -5 57 -9 l55 -6 32 203 c37 232 38 250 17 310
-33 92 -117 149 -232 157 -90 6 -131 -2 -178 -34 l-37 -25 6 45 c8 49 8 48
-65 60 l-36 6 -51 -312z"/>
<path d="M4980 8271 c-87 -27 -165 -96 -203 -180 -16 -35 -21 -66 -21 -127 0
-72 4 -90 32 -147 39 -78 93 -128 171 -158 85 -32 206 -24 294 19 36 18 78 47
92 64 l26 31 -33 34 -34 34 -37 -34 c-104 -99 -297 -84 -362 27 -14 24 -25 47
-25 53 0 5 111 24 247 42 136 18 250 34 254 36 12 8 -13 110 -39 159 -33 61
-100 120 -159 140 -48 17 -159 20 -203 7z m199 -119 c28 -17 53 -43 68 -71 13
-24 21 -46 20 -48 -4 -3 -370 -53 -393 -53 -25 0 6 99 45 144 19 22 65 46 106
57 46 12 106 1 154 -29z"/>
<path d="M4276 8220 c-26 -11 -50 -21 -53 -23 -2 -3 7 -32 21 -66 l25 -61 -36
-15 c-19 -8 -39 -15 -44 -15 -17 0 -19 -20 -3 -59 l16 -40 49 19 c38 15 51 17
54 7 89 -235 138 -355 159 -382 15 -19 45 -40 72 -51 40 -15 54 -16 103 -6 56
12 124 52 145 84 8 14 5 23 -19 48 -28 30 -29 30 -49 11 -53 -48 -119 -55
-155 -18 -21 23 -154 354 -146 366 2 4 39 19 83 35 l80 29 -15 44 c-8 23 -18
43 -22 43 -3 0 -42 -14 -85 -30 -43 -17 -80 -29 -81 -28 -1 2 -13 31 -26 64
l-24 62 -49 -18z"/>
<path d="M6910 7979 c-41 -82 -77 -149 -80 -149 -3 0 -13 20 -23 45 -23 55
-82 109 -156 143 -74 35 -173 36 -247 3 -93 -41 -171 -144 -194 -258 -30 -145
65 -298 216 -350 46 -15 149 -14 187 2 17 7 17 5 -3 -35 -12 -23 -20 -43 -18
-45 18 -15 92 -45 98 -38 4 4 95 182 203 394 l196 385 -53 26 -52 26 -74 -149z
m-309 -51 c47 -14 113 -68 136 -112 24 -46 21 -133 -6 -189 -62 -128 -198
-171 -313 -98 -85 54 -117 149 -83 251 40 119 153 182 266 148z"/>
<path d="M3845 7841 c-22 -10 -59 -33 -82 -50 -45 -33 -103 -122 -103 -158 0
-31 -15 -29 -40 7 l-21 30 -45 -31 c-25 -17 -41 -35 -38 -41 8 -13 249 -358
311 -446 l44 -62 30 17 c71 42 72 37 -42 199 -136 196 -149 235 -108 322 39
80 145 135 215 112 50 -17 85 -56 197 -218 54 -77 101 -143 105 -146 9 -6 92
46 92 57 0 14 -211 311 -248 350 -73 75 -180 99 -267 58z"/>
<path d="M7340 7314 c-173 -130 -324 -242 -334 -249 -18 -13 -12 -24 112 -189
189 -252 260 -301 437 -301 92 0 106 3 168 32 222 105 310 341 208 558 -25 53
-216 323 -259 367 -16 16 -37 2 -332 -218z m386 -26 c116 -155 129 -185 129
-293 0 -80 -3 -95 -27 -135 -72 -123 -208 -192 -330 -170 -103 20 -155 60
-267 209 l-89 118 251 187 c138 102 253 186 254 186 2 0 37 -46 79 -102z"/>
<path d="M3315 7321 c-95 -25 -181 -100 -228 -199 -73 -155 -12 -332 144 -417
44 -23 69 -30 135 -33 72 -4 89 -1 137 21 181 83 259 283 177 453 -27 54 -107
130 -167 156 -51 22 -150 32 -198 19z m153 -125 c126 -65 173 -199 109 -309
-66 -112 -199 -140 -311 -66 -81 54 -120 149 -96 235 16 57 82 130 135 150 46
17 120 12 163 -10z"/>
<path d="M2850 6772 c-21 -45 -24 -142 -7 -185 9 -20 14 -37 11 -37 -3 0 -22
9 -43 19 l-38 20 -23 -50 c-13 -27 -22 -51 -19 -53 8 -7 559 -256 567 -256 8
0 38 60 44 88 2 7 -59 41 -155 85 -86 40 -172 84 -191 99 -62 50 -83 137 -51
215 18 43 18 40 3 46 -7 3 -29 12 -49 21 -36 15 -36 15 -49 -12z"/>
<path d="M7749 6512 c-187 -62 -269 -229 -209 -424 11 -36 33 -83 50 -106 27
-38 103 -102 120 -102 7 0 54 80 49 84 -107 68 -158 186 -128 294 14 49 94
142 108 126 5 -5 43 -116 85 -247 73 -226 78 -238 99 -231 172 51 265 191 235
354 -36 196 -225 312 -409 252z m189 -107 c94 -40 148 -148 122 -246 -11 -42
-84 -129 -107 -129 -5 0 -36 82 -68 183 -32 100 -60 188 -62 195 -7 18 69 16
115 -3z"/>
<path d="M2436 6321 c-12 -43 -109 -562 -105 -565 5 -4 792 -156 807 -156 13
0 35 101 25 110 -5 4 -75 20 -156 36 -81 15 -152 31 -157 34 -6 3 7 88 30 205
21 110 37 201 35 203 -7 8 -88 22 -93 17 -3 -2 -23 -94 -44 -202 -22 -109 -41
-199 -42 -201 -2 -1 -67 9 -145 24 -132 25 -140 28 -136 48 19 86 85 439 83
441 -2 2 -24 7 -50 13 -41 8 -48 7 -52 -7z"/>
<path d="M7945 5738 c-165 -82 -301 -151 -302 -152 0 0 2 -27 5 -60 l7 -58
300 -115 c361 -137 350 -134 342 -102 -4 13 -7 38 -7 55 l0 31 -232 88 c-128
48 -243 93 -256 99 -21 11 -8 19 155 100 98 49 208 102 246 118 l67 31 0 43
c0 44 -8 74 -19 73 -3 0 -141 -68 -306 -151z"/>
<path d="M7827 5180 c-150 -38 -250 -180 -250 -355 0 -69 25 -153 51 -169 6
-3 27 3 47 15 26 16 34 26 29 38 -34 78 -35 154 -5 232 14 39 66 94 105 113
35 16 106 22 105 9 0 -5 -24 -116 -53 -248 -48 -215 -52 -241 -37 -250 9 -5
52 -9 96 -9 100 -1 166 26 226 91 151 164 102 417 -98 506 -65 29 -159 41
-216 27z m225 -156 c92 -64 104 -217 25 -302 -12 -13 -39 -33 -59 -43 -39 -20
-108 -26 -108 -9 0 6 18 91 40 190 22 99 40 182 40 185 0 12 27 3 62 -21z"/>
<path d="M2560 5151 c-30 -5 -35 -9 -32 -31 9 -63 55 -134 112 -171 l25 -17
-48 -7 -49 -8 7 -46 c4 -25 10 -50 14 -54 7 -7 609 88 619 98 9 8 -12 97 -24
102 -7 3 -83 -7 -168 -21 -85 -14 -173 -26 -195 -26 -85 0 -155 54 -176 137
-13 52 -21 56 -85 44z"/>
<path d="M2920 4718 c-76 -29 -161 -115 -184 -186 -53 -157 26 -347 172 -419
47 -23 70 -28 132 -28 63 0 85 5 140 31 75 36 130 88 162 153 19 38 23 62 23
136 0 78 -4 98 -28 147 -35 71 -97 134 -162 164 -67 32 -176 32 -255 2z m231
-111 c54 -28 105 -101 114 -160 20 -129 -91 -247 -230 -247 -72 0 -113 18
-157 69 -61 71 -74 156 -35 231 56 111 203 162 308 107z"/>
<path d="M7460 4515 c-11 -26 -20 -50 -20 -53 0 -6 633 -290 771 -346 l36 -15
23 49 c13 28 22 52 19 54 -4 3 -766 342 -796 353 -8 3 -21 -14 -33 -42z"/>
<path d="M7355 4221 c-72 -34 -137 -101 -173 -179 -36 -78 -37 -184 -2 -257
31 -63 93 -126 162 -162 46 -24 64 -28 138 -28 69 0 94 4 133 23 64 32 130
100 164 170 24 50 28 68 28 147 0 104 -18 148 -86 216 -99 99 -245 127 -364
70z m211 -105 c150 -70 184 -248 67 -358 -63 -61 -146 -73 -228 -34 -145 69
-188 225 -94 339 62 76 162 96 255 53z"/>
<path d="M3268 3998 l-257 -181 15 -27 c47 -79 20 -89 298 105 136 95 253 178
258 183 7 7 0 25 -21 56 -18 25 -33 46 -34 45 -1 0 -118 -82 -259 -181z"/>
<path d="M6808 3957 l-37 -32 94 -125 94 -125 -72 -6 c-90 -7 -139 -31 -205
-103 -64 -70 -86 -132 -80 -224 8 -120 80 -226 190 -281 77 -39 158 -42 245
-9 77 28 166 116 183 179 23 85 23 85 51 45 l25 -36 43 31 c23 17 41 35 39 40
-8 22 -514 679 -523 679 -5 -1 -27 -15 -47 -33z m210 -396 c176 -91 173 -333
-5 -408 -154 -64 -339 107 -293 271 35 125 186 194 298 137z"/>
<path d="M3524 3828 c-146 -159 -179 -204 -195 -262 -39 -143 116 -326 275
-326 l50 0 -33 -34 -33 -34 37 -34 c21 -18 41 -33 45 -33 12 0 430 458 425
466 -3 4 -23 21 -44 38 l-39 31 -123 -135 c-168 -185 -220 -210 -324 -161 -60
27 -100 71 -116 126 -21 70 -4 101 151 270 l140 154 -27 29 c-53 55 -49 58
-189 -95z"/>
<path d="M2832 3713 c-35 -30 -37 -65 -7 -101 61 -72 163 -6 121 77 -24 45
-77 56 -114 24z"/>
<path d="M4154 3441 c-20 -9 -21 -13 -11 -54 l10 -44 71 5 c60 4 79 1 120 -19
59 -27 111 -77 131 -126 16 -37 20 -110 7 -130 -5 -8 -74 21 -232 98 -123 60
-230 107 -237 105 -23 -9 -56 -143 -50 -205 17 -194 228 -329 417 -266 66 22
151 100 186 171 35 72 43 171 19 243 -24 72 -99 152 -183 193 -56 28 -79 33
-147 35 -44 2 -90 -1 -101 -6z m106 -367 c96 -47 176 -87 179 -90 2 -2 -6 -16
-20 -30 -105 -113 -300 -68 -344 80 -14 46 -11 126 4 126 3 0 85 -39 181 -86z"/>
<path d="M6220 3330 c-99 -25 -202 -96 -236 -161 -19 -38 -18 -41 17 -61 34
-20 59 -23 59 -8 0 21 68 85 115 106 98 46 225 24 279 -49 17 -23 18 -30 7
-36 -7 -5 -114 -46 -237 -92 -246 -92 -241 -87 -204 -160 31 -60 87 -117 144
-147 73 -37 187 -38 267 0 69 32 134 94 162 157 33 72 31 187 -6 266 -55 117
-147 183 -265 190 -37 2 -83 0 -102 -5z m288 -349 c-6 -79 -39 -130 -109 -165
-60 -30 -113 -33 -167 -10 -40 16 -102 71 -102 89 0 11 338 143 369 144 10 1
12 -12 9 -58z"/>
<path d="M4784 3196 c-97 -45 -153 -155 -125 -247 22 -73 72 -116 226 -190
150 -73 162 -81 188 -119 39 -56 4 -136 -70 -161 -80 -26 -233 10 -320 77
l-32 25 -27 -41 c-25 -38 -26 -41 -10 -59 26 -29 126 -79 191 -96 33 -8 95
-15 140 -15 128 0 216 52 250 149 30 87 10 169 -58 228 -20 17 -80 52 -134 77
-153 72 -186 92 -211 127 -31 44 -24 92 18 134 30 29 33 30 128 30 88 0 103
-3 163 -32 37 -17 86 -48 109 -69 l43 -39 28 35 c16 19 29 40 29 46 0 18 -76
77 -137 108 -123 61 -295 76 -389 32z"/>
<path d="M5768 3200 c-26 -3 -50 -9 -54 -12 -3 -4 3 -78 15 -165 12 -87 21
-176 21 -198 -1 -91 -66 -166 -158 -181 l-42 -7 6 -51 c4 -28 8 -53 11 -55 8
-10 99 21 136 45 21 14 46 38 56 55 18 30 18 30 25 7 3 -13 6 -35 6 -50 0 -25
2 -26 43 -21 70 8 69 7 62 70 -22 181 -74 565 -77 567 -2 1 -24 -1 -50 -4z"/>
</g>
</svg>
