<?xml version="1.0" standalone="no"?>
<!DOCTYPE svg PUBLIC "-//W3C//DTD SVG 20010904//EN"
 "http://www.w3.org/TR/2001/REC-SVG-20010904/DTD/svg10.dtd">
<svg version="1.0" xmlns="http://www.w3.org/2000/svg"
 width="1080.000000pt" height="1080.000000pt" viewBox="0 0 1080.000000 1080.000000"
 preserveAspectRatio="xMidYMid meet">

<g transform="translate(0.000000,1080.000000) scale(0.100000,-0.100000)"
fill="#000000" stroke="none">
<path d="M5645 9502 c-3 -3 -5 -26 -5 -51 0 -25 -6 -67 -14 -92 -8 -25 -17
-77 -21 -115 -3 -38 -11 -80 -16 -94 -5 -14 -14 -64 -19 -110 -5 -47 -13 -107
-19 -135 -16 -77 -33 -185 -38 -236 l-5 -46 48 -7 c98 -13 102 -12 109 42 3
26 10 67 15 92 6 25 15 82 20 128 5 45 11 86 14 91 3 4 10 41 17 81 20 128 77
210 173 245 99 36 229 13 298 -53 52 -49 85 -148 69 -203 -12 -38 -33 -171
-52 -324 -6 -44 -15 -96 -20 -115 -22 -82 -21 -84 55 -93 38 -5 72 -5 77 0 5
5 18 69 29 143 12 74 28 165 36 201 8 37 14 82 14 102 0 19 5 58 10 87 12 62
-1 151 -31 216 -52 113 -189 186 -353 186 -93 1 -159 -18 -217 -64 -20 -15
-40 -28 -44 -28 -7 0 -4 26 10 96 l7 30 -71 15 c-39 9 -73 13 -76 11z"/>
<path d="M4865 9461 c-11 -5 -30 -10 -43 -10 -37 -1 -156 -62 -197 -101 -144
-135 -176 -373 -77 -566 29 -56 130 -149 198 -181 56 -27 66 -28 209 -28 l150
0 75 36 c52 25 90 52 124 89 l50 53 -49 44 -49 43 -46 -44 c-73 -71 -126 -91
-246 -91 -81 0 -108 4 -140 20 -67 34 -121 83 -144 130 -35 73 -30 79 80 88
52 4 118 12 145 18 28 5 97 14 155 19 58 6 118 14 134 20 16 5 48 10 71 10 23
0 57 3 75 7 l33 6 -6 64 c-4 35 -13 76 -20 91 -8 15 -25 49 -38 76 -46 92
-151 176 -249 198 -66 14 -172 19 -195 9z m192 -151 c57 -24 101 -66 132 -125
34 -64 30 -70 -46 -83 -38 -7 -113 -17 -168 -22 -55 -6 -119 -15 -142 -20 -24
-6 -77 -13 -118 -17 -74 -6 -75 -6 -75 18 2 203 221 333 417 249z"/>
<path d="M3846 9391 c-3 -5 -21 -12 -40 -15 -63 -12 -66 -28 -27 -140 12 -33
21 -63 21 -67 0 -4 -24 -15 -52 -24 -70 -23 -80 -35 -64 -88 14 -51 35 -57
107 -31 l51 18 19 -24 c10 -14 19 -30 19 -37 0 -6 21 -64 46 -130 25 -65 52
-139 60 -165 8 -26 19 -50 24 -53 6 -3 10 -17 10 -29 0 -13 7 -29 15 -36 8 -7
15 -20 15 -29 0 -30 97 -119 143 -132 86 -23 218 11 295 76 57 48 59 62 16
106 l-38 39 -26 -25 c-66 -63 -147 -81 -205 -45 -29 18 -85 103 -85 130 0 7
-6 26 -14 43 -7 18 -23 59 -35 92 -13 33 -27 71 -33 85 -32 73 -67 185 -60
191 7 7 36 19 164 70 63 25 64 28 32 107 -15 36 -22 38 -50 17 -10 -8 -28 -15
-39 -15 -11 0 -33 -7 -49 -15 -15 -8 -33 -15 -40 -15 -6 0 -24 -7 -40 -15 -16
-9 -30 -14 -31 -13 -8 9 -45 99 -45 108 0 40 -49 86 -64 61z"/>
<path d="M7539 9044 c-57 -113 -107 -208 -112 -211 -13 -8 -37 17 -37 39 0 80
-143 208 -268 240 -20 5 -55 14 -77 19 -100 26 -256 -25 -343 -112 -106 -106
-144 -194 -149 -343 -6 -153 13 -204 116 -307 50 -50 96 -85 136 -104 55 -27
70 -29 175 -29 78 -1 122 3 138 12 23 13 23 12 17 -10 -15 -47 -24 -66 -34
-73 -24 -14 -8 -33 50 -64 71 -37 63 -41 115 64 20 39 39 78 45 88 5 9 13 25
18 35 6 9 22 42 36 72 14 30 30 62 35 70 5 8 83 161 173 340 91 179 172 339
181 355 26 50 21 61 -46 94 -33 17 -62 31 -63 31 -1 0 -49 -93 -106 -206z
m-389 -89 c62 -31 137 -107 145 -146 4 -16 11 -31 16 -34 11 -8 12 -149 1
-173 -43 -89 -70 -133 -100 -164 -109 -115 -310 -109 -429 12 -53 54 -74 98
-80 169 -8 82 11 157 56 225 42 62 129 131 178 139 64 11 161 -1 213 -28z"/>
<path d="M3272 8870 c-23 -5 -69 -23 -101 -40 -66 -35 -189 -153 -198 -189 -3
-14 -12 -36 -19 -50 -8 -14 -14 -38 -14 -53 0 -39 -22 -35 -44 7 -31 58 -38
59 -100 19 -31 -20 -56 -41 -56 -46 0 -11 53 -89 74 -110 7 -8 20 -27 29 -43
8 -17 25 -40 36 -52 12 -12 21 -25 21 -29 0 -3 32 -52 72 -108 39 -55 87 -123
106 -151 20 -27 53 -75 74 -105 20 -30 51 -71 67 -90 28 -34 30 -34 48 -17 11
9 23 17 27 17 4 0 21 10 39 22 18 13 33 24 35 25 2 0 -17 30 -42 65 -25 34
-67 94 -93 132 -26 37 -65 91 -85 120 -68 94 -108 184 -108 241 0 94 48 174
146 241 52 36 60 38 127 38 65 0 77 -3 119 -32 26 -18 56 -44 65 -58 10 -14
33 -43 51 -64 17 -20 32 -41 32 -44 0 -8 116 -177 147 -213 10 -12 29 -40 43
-63 13 -22 32 -40 42 -40 27 0 108 59 108 79 0 10 -8 29 -18 42 -28 35 -132
185 -220 314 -64 96 -157 188 -214 213 -57 25 -138 34 -196 22z"/>
<path d="M8525 8385 c-33 -24 -80 -57 -105 -75 -25 -17 -67 -49 -95 -71 -27
-21 -84 -64 -125 -94 -41 -30 -102 -75 -135 -100 -82 -63 -245 -184 -332 -246
-40 -28 -73 -58 -73 -65 0 -18 63 -108 185 -267 22 -29 53 -70 68 -93 77 -114
260 -265 341 -281 16 -4 42 -12 56 -20 41 -21 224 -17 293 7 54 19 149 67 192
96 91 63 196 214 218 314 14 64 14 225 -1 292 -19 84 -74 187 -172 317 -47 64
-122 164 -165 224 -44 59 -82 107 -85 106 -3 0 -32 -20 -65 -44z m101 -228
c16 -23 63 -87 104 -142 121 -162 150 -234 150 -368 0 -88 -2 -97 -37 -164
-61 -116 -133 -182 -259 -238 -50 -23 -73 -27 -154 -27 -81 0 -104 4 -155 27
-88 39 -158 96 -225 183 -205 266 -195 250 -175 272 10 11 47 40 84 64 36 25
77 56 91 68 14 13 43 35 65 50 76 52 172 123 206 152 19 15 83 64 143 107 120
86 115 86 162 16z"/>
<path d="M2445 8108 c-176 -60 -309 -205 -346 -378 -67 -314 265 -618 569
-521 100 32 170 81 239 167 58 73 81 121 98 211 45 229 -98 445 -346 522 -43
13 -173 13 -214 -1z m232 -174 c84 -44 123 -80 162 -154 42 -78 44 -175 6
-250 -72 -142 -191 -206 -336 -180 -155 28 -290 189 -277 328 6 65 52 162 98
207 60 59 123 84 207 85 63 0 80 -4 140 -36z"/>
<path d="M1801 7338 c-15 -40 -31 -117 -31 -151 0 -34 21 -112 40 -147 10 -19
9 -20 -12 -18 -13 2 -35 12 -50 22 -44 29 -70 16 -97 -49 -13 -31 -22 -57 -20
-59 2 -2 63 -29 134 -61 72 -32 176 -80 233 -107 56 -26 104 -48 107 -48 3 0
38 -15 77 -34 168 -79 230 -106 244 -106 19 0 68 110 57 129 -8 12 -100 57
-258 127 -216 94 -288 151 -310 246 -14 61 -5 150 20 199 l15 29 -50 25 c-61
31 -88 32 -99 3z"/>
<path d="M8767 6981 c-21 -4 -48 -13 -60 -18 -12 -6 -47 -22 -77 -36 -71 -32
-160 -125 -196 -203 -25 -54 -28 -70 -28 -184 -1 -100 2 -131 16 -155 9 -16
19 -41 22 -55 14 -65 115 -186 193 -232 l29 -17 37 56 36 57 -41 23 c-58 33
-83 63 -123 149 -31 65 -35 84 -35 154 0 65 5 89 27 135 28 61 69 107 113 130
27 14 28 13 43 -23 9 -20 19 -48 22 -62 3 -14 10 -34 15 -45 5 -11 14 -39 20
-62 6 -23 15 -45 20 -48 6 -3 10 -18 10 -33 0 -15 6 -39 14 -53 7 -14 16 -42
20 -62 4 -20 13 -49 21 -64 8 -15 15 -37 15 -49 0 -11 7 -29 15 -40 8 -10 15
-29 15 -42 0 -31 27 -92 40 -92 12 0 97 36 120 50 8 6 22 13 30 17 64 27 162
147 182 222 29 109 32 147 14 220 -41 169 -115 266 -251 330 -57 27 -83 33
-154 36 -47 2 -103 0 -124 -4z m205 -152 c78 -29 140 -85 167 -151 12 -29 26
-61 31 -70 41 -73 -44 -267 -133 -306 -15 -7 -31 -12 -36 -12 -4 0 -27 60 -51
133 -23 72 -53 166 -67 207 -13 41 -28 84 -32 95 -9 21 -31 98 -31 108 0 3 8
8 18 10 38 10 78 6 134 -14z"/>
<path d="M1215 6674 c-4 -22 -11 -50 -15 -64 -5 -14 -14 -54 -19 -90 -5 -36
-14 -83 -20 -105 -6 -22 -11 -57 -11 -78 0 -21 -5 -47 -11 -58 -5 -11 -15 -48
-20 -82 -5 -34 -16 -89 -23 -122 -8 -33 -17 -83 -19 -111 l-6 -52 52 -15 c29
-9 75 -19 102 -22 28 -4 61 -11 75 -16 14 -5 54 -14 90 -19 36 -5 110 -18 165
-30 117 -24 233 -45 325 -61 36 -6 79 -15 97 -20 17 -5 69 -16 115 -24 46 -8
93 -17 104 -20 20 -6 23 -1 32 52 6 32 14 68 17 79 7 24 7 24 -115 45 -36 6
-87 17 -115 24 -27 7 -70 16 -95 19 -25 4 -66 12 -92 18 l-48 12 6 40 c4 23
13 66 20 96 8 30 14 67 14 83 0 15 6 49 14 75 7 26 23 98 36 161 18 93 19 115
8 122 -19 12 -108 30 -118 24 -4 -3 -10 -22 -14 -42 -9 -62 -41 -233 -71 -378
-8 -38 -18 -88 -23 -110 l-8 -40 -49 3 c-28 2 -64 7 -81 13 -16 5 -68 16 -115
25 -46 9 -100 19 -119 23 l-35 7 2 63 c2 35 10 86 18 114 8 28 15 65 15 82 0
18 5 45 10 61 6 16 17 65 25 109 35 183 39 215 28 226 -5 5 -35 13 -66 16
l-56 6 -6 -39z"/>
<path d="M8990 5870 l-422 -211 6 -31 c3 -17 6 -52 6 -77 0 -44 2 -48 35 -64
20 -9 42 -17 50 -17 7 0 26 -7 42 -15 15 -8 55 -24 88 -36 33 -12 69 -25 80
-30 47 -20 212 -81 230 -86 11 -2 34 -11 50 -19 56 -26 212 -84 227 -84 8 0
23 -7 34 -15 10 -8 29 -15 42 -15 21 0 22 4 22 69 0 77 14 65 -120 114 -30 11
-64 23 -75 28 -20 8 -168 65 -260 99 -174 66 -265 103 -265 109 0 4 33 23 73
43 116 59 528 258 575 279 l42 18 0 60 c0 67 -6 91 -24 91 -7 0 -203 -95 -436
-210z"/>
<path d="M8762 5063 c-49 -19 -80 -42 -132 -94 -73 -74 -102 -125 -132 -234
-33 -118 -15 -288 38 -360 23 -30 29 -30 84 4 8 5 23 12 34 15 13 5 15 10 8
19 -23 28 -52 125 -52 175 0 152 102 311 219 341 34 9 81 14 109 12 9 -1 11
-14 6 -53 -4 -29 -10 -58 -15 -63 -4 -6 -12 -39 -18 -75 -15 -95 -30 -169 -46
-220 -7 -25 -17 -67 -20 -95 -4 -27 -14 -71 -22 -96 -8 -26 -13 -62 -11 -80 3
-33 4 -34 63 -42 101 -13 217 1 284 34 166 83 254 267 226 474 -13 98 -40 150
-114 228 -91 96 -197 138 -348 136 -80 -1 -110 -6 -161 -26z m351 -167 c46
-19 124 -109 138 -159 16 -59 6 -185 -19 -233 -45 -88 -147 -154 -237 -154
-52 0 -55 1 -55 26 0 14 4 34 10 44 5 10 16 53 24 96 17 90 32 155 52 235 8
30 14 70 14 87 0 32 18 72 33 72 4 0 22 -6 40 -14z"/>
<path d="M1427 5049 c-86 -20 -94 -42 -52 -134 23 -52 98 -137 140 -161 27
-16 18 -22 -46 -32 l-54 -8 4 -69 c1 -39 5 -73 7 -76 2 -4 21 -3 41 2 21 5 81
16 133 24 158 24 270 43 319 54 25 5 80 15 121 21 41 6 112 17 157 24 45 7 86
15 89 19 8 8 7 79 -2 121 -6 28 -7 28 -63 22 -31 -3 -76 -11 -101 -16 -124
-28 -235 -44 -332 -47 -98 -4 -110 -2 -156 21 -73 37 -132 126 -144 215 -4 29
-11 32 -61 20z"/>
<path d="M1965 4456 c-110 -29 -189 -78 -258 -164 -65 -81 -80 -124 -85 -247
-4 -96 -2 -118 18 -176 34 -96 103 -194 175 -245 33 -23 65 -43 71 -43 6 -1
26 -9 45 -18 53 -27 206 -24 288 5 128 46 209 115 268 232 34 68 38 84 41 170
3 82 1 105 -21 166 -59 169 -170 280 -321 320 -62 17 -154 17 -221 0z m237
-160 c82 -36 116 -71 159 -160 45 -95 49 -139 17 -217 -30 -76 -79 -133 -151
-176 -61 -36 -64 -37 -167 -37 -94 -1 -109 2 -145 23 -62 37 -84 61 -123 131
-34 60 -37 72 -37 145 0 64 5 89 23 122 32 60 79 111 126 136 120 63 208 72
298 33z"/>
<path d="M8316 4151 c-14 -32 -26 -65 -26 -73 0 -8 25 -25 58 -38 31 -13 91
-39 132 -58 84 -38 136 -61 195 -86 22 -10 54 -24 70 -31 17 -8 65 -30 108
-49 43 -20 80 -36 82 -36 4 0 33 -13 200 -90 145 -67 251 -110 272 -110 17 0
26 8 33 28 6 15 17 39 25 54 8 14 15 30 15 36 0 5 -28 22 -62 37 -35 15 -88
38 -118 52 -30 13 -68 30 -85 38 -54 25 -147 66 -320 142 -172 75 -236 103
-290 128 -16 7 -46 20 -65 28 -70 30 -155 68 -172 77 -25 14 -23 16 -52 -49z"/>
<path d="M8275 3774 c-208 -56 -349 -204 -385 -406 -10 -54 -10 -82 0 -135 13
-69 44 -147 67 -171 7 -7 13 -17 13 -21 0 -12 74 -83 115 -110 65 -42 87 -52
140 -66 111 -28 123 -28 253 5 85 21 197 112 256 208 51 82 70 150 71 247 0
134 -36 216 -136 311 -100 94 -185 133 -301 139 -40 2 -82 2 -93 -1z m155
-164 c92 -27 189 -124 223 -224 26 -77 19 -134 -29 -230 -19 -37 -93 -116
-110 -116 -6 0 -23 -9 -37 -20 -20 -16 -40 -20 -108 -20 -69 0 -91 4 -137 27
-58 28 -162 117 -162 138 0 7 -9 24 -20 38 -16 20 -20 40 -20 105 0 81 11 117
55 188 29 45 107 106 150 117 36 9 160 7 195 -3z"/>
<path d="M2650 3600 c-52 -37 -115 -82 -140 -99 -88 -62 -236 -165 -285 -200
-27 -19 -75 -52 -105 -73 -101 -69 -96 -57 -50 -127 22 -33 44 -61 49 -61 4 0
28 15 52 33 24 19 89 64 144 102 55 38 123 84 150 104 28 19 75 52 105 73 30
22 87 62 125 89 39 28 85 60 103 71 17 11 32 27 32 35 0 17 -68 123 -78 122
-4 0 -50 -31 -102 -69z"/>
<path d="M7407 3368 c-45 -33 -56 -46 -51 -62 4 -10 54 -82 113 -158 58 -76
114 -152 124 -168 l19 -30 -59 6 c-104 11 -216 -33 -314 -123 -193 -179 -191
-445 6 -644 37 -37 90 -79 118 -95 47 -25 64 -28 174 -32 l121 -4 76 36 c80
37 175 117 204 171 30 55 52 120 52 153 0 17 4 32 8 32 4 0 25 -20 45 -45 21
-25 42 -45 47 -45 4 0 31 18 59 40 l51 41 -42 57 c-24 31 -63 83 -88 114 -77
97 -124 159 -155 204 -16 23 -42 57 -57 76 -25 29 -222 289 -345 453 -25 33
-46 61 -47 62 -1 2 -28 -16 -59 -39z m266 -557 c64 -28 141 -102 171 -165 33
-70 41 -133 26 -213 -12 -63 -17 -70 -79 -132 -53 -53 -79 -70 -131 -89 -80
-27 -90 -27 -171 0 -51 17 -76 34 -126 83 -84 84 -108 138 -108 240 0 64 5 89
23 123 28 53 101 128 139 144 16 6 44 17 63 25 46 18 132 11 193 -16z"/>
<path d="M2871 3307 c-29 -34 -108 -120 -175 -191 -177 -188 -226 -270 -226
-380 0 -91 33 -160 120 -247 93 -93 161 -129 249 -129 90 0 97 -5 63 -49 -46
-59 -46 -65 6 -112 l47 -42 118 124 c65 68 155 165 199 214 45 50 122 134 172
188 50 55 94 107 98 118 5 14 -4 28 -40 59 -26 22 -52 40 -59 40 -6 0 -67 -62
-136 -137 -178 -197 -237 -253 -299 -279 -67 -29 -111 -30 -182 -3 -62 24
-152 105 -179 162 -43 91 -13 178 108 307 39 41 113 122 165 180 52 58 101
109 107 113 7 4 13 15 13 25 0 21 -79 102 -100 102 -8 -1 -39 -29 -69 -63z"/>
<path d="M1784 3028 c-12 -5 -30 -27 -39 -48 -16 -36 -16 -39 3 -77 28 -53 43
-64 93 -65 36 0 48 5 71 31 43 48 34 114 -22 158 -18 15 -77 16 -106 1z"/>
<path d="M3695 2640 c-16 -4 -42 -11 -56 -14 -25 -5 -26 -9 -19 -38 20 -86 15
-82 136 -83 108 0 110 0 183 -40 118 -64 181 -160 181 -275 0 -88 -25 -123
-62 -87 -7 8 -65 39 -128 69 -63 30 -195 95 -293 143 -202 99 -199 99 -232 7
-41 -115 -39 -257 5 -356 31 -67 131 -163 216 -206 68 -34 71 -35 194 -35 118
0 128 2 183 29 76 38 176 139 212 213 29 61 55 165 55 220 0 106 -59 232 -146
311 -119 110 -312 174 -429 142z m20 -485 c237 -113 325 -157 331 -167 4 -5
-11 -28 -32 -50 -113 -117 -285 -118 -414 -2 -62 56 -90 121 -90 209 0 39 5
76 11 82 14 14 15 14 194 -72z"/>
<path d="M6545 2466 c-28 -7 -59 -17 -70 -23 -11 -5 -42 -21 -68 -34 -89 -44
-197 -161 -197 -211 0 -10 88 -68 103 -68 2 0 18 22 36 49 100 155 325 209
472 115 86 -56 127 -134 69 -134 -11 0 -59 -15 -108 -34 -48 -18 -139 -53
-202 -76 -63 -24 -133 -50 -155 -58 -22 -8 -67 -24 -99 -36 -79 -28 -85 -40
-57 -107 48 -111 132 -196 241 -244 68 -31 254 -28 330 5 211 90 325 314 264
521 -53 178 -162 294 -318 335 -62 17 -173 16 -241 0z m427 -441 c4 -25 0 -64
-9 -103 -13 -52 -25 -73 -63 -112 -75 -77 -118 -94 -230 -94 -91 0 -97 1 -143
33 -52 36 -112 110 -100 122 8 7 59 28 163 67 30 11 97 36 147 56 51 20 99 36
106 36 7 0 21 6 32 14 53 37 88 30 97 -19z"/>
<path d="M4580 2301 c-59 -19 -125 -57 -152 -87 -9 -11 -29 -41 -44 -69 -25
-45 -28 -60 -29 -141 0 -74 3 -96 18 -111 9 -11 17 -24 17 -29 1 -33 108 -113
225 -168 231 -110 268 -130 301 -162 19 -20 40 -48 45 -62 16 -42 2 -108 -33
-147 -99 -114 -295 -98 -533 44 -31 18 -57 32 -58 30 -2 -2 -16 -23 -31 -47
-38 -56 -29 -76 60 -129 121 -72 237 -103 380 -103 88 0 122 4 173 22 81 29
142 83 178 156 23 48 28 70 28 137 0 95 -12 122 -89 198 -39 38 -83 66 -162
104 -60 29 -148 70 -195 93 -104 50 -155 98 -165 156 -14 91 40 163 144 189
59 15 71 15 160 0 117 -21 261 -86 328 -147 24 -22 50 -38 57 -35 7 2 25 23
41 45 22 33 26 44 17 60 -19 35 -86 86 -167 126 -44 21 -87 43 -97 48 -83 41
-327 58 -417 29z"/>
<path d="M5867 2283 c-28 -4 -29 -5 -22 -56 3 -29 10 -72 15 -97 5 -25 14 -88
19 -140 6 -52 16 -123 22 -158 11 -58 10 -70 -12 -139 -20 -66 -30 -81 -77
-123 -42 -38 -65 -50 -112 -60 -33 -7 -64 -18 -70 -25 -7 -8 -6 -31 3 -71 l14
-59 37 2 c39 3 128 41 171 74 14 12 38 40 52 63 23 36 27 38 34 21 4 -11 8
-34 8 -52 2 -67 18 -74 107 -51 l46 13 -5 55 c-9 96 -27 242 -42 330 -7 47
-16 119 -20 160 -3 41 -10 90 -15 110 -5 19 -12 74 -16 123 l-6 87 -51 -1
c-29 -1 -65 -4 -80 -6z"/>
</g>
</svg>
